<svg xmlns="http://www.w3.org/2000/svg" fill="none" viewBox="0 0 71 37"><mask id="a" width="71" height="37" x="0" y="0" fill="#000" maskUnits="userSpaceOnUse"><path fill="#fff" d="M0 0h71v37H0z"/><path d="M21.34 5.042l.215.019 1.067-.019.317.019.403-.019c.12 0 .207.037.26.11v.103l-.022.206.022.024-.022.188v1.643l.022.304-.022.303v.8c0 .574-.014.861-.043.861l.022.122-.022 2.383-.043.418v.8l.021.291-.021.073.021.54v.036l-.021.152.021.073-.021.515.021.194-.021.079.021.382v.206l.044.06.252-.017h2.299c.5 0 1.025-.083 1.578-.249.22 0 .667-.184 1.34-.552l.28-.121.023.06-.044.267.022.055-.087.418v.249c0 .226-.036.52-.108.88v.302l-.086.655v.328c-.034.493-.082.74-.144.74-.096-.09-.144-.146-.144-.17l.036-.08a6.646 6.646 0 0 0-.555-1.072l-.022-.019h-.043l-.058.158.015.018v.024c0 .061-.02.098-.058.11h-.043c-.058 0-.087-.063-.087-.188l-.043.036.022.018v.024l-.108.219.216.042.043-.042h.022l.036.042c0 .113-.02.196-.058.249l-.13-.037h-.043l-.022.055.152.043.065-.019v.018l-.044.037-.021-.018-.022.018h-.021c-.044-.024-.15-.043-.317-.055-.125-.117-.36-.176-.707-.176l-.576.025h-.26c-.067 0-.1-.04-.1-.122-.058 0-.087-.02-.087-.06l.022-.012v-.018l-.108-.043-.087.194.022.018-.065.043h-.058c-.077 0-.127-.027-.151-.08v-.042c.038-.064.115-.115.23-.151l.065-.23-.144-.098h-.043c-.12 0-.255.077-.404.23 0-.02-.028-.03-.086-.03l-.022-.024v-.018l.087-.115c0-.024-.053-.043-.159-.055v-.018l.072-.06h.108v-.019c.005-.25.09-.384.253-.4h.065l.108.079h.036c0-.073.079-.113.238-.121.038.113.103.17.194.17h.195l.122.024.108-.073-.021-.024v-.037l.144-.018h.05l.022.018h.021l-.021.018v.055l.043.079h.058c.043-.012.065-.05.065-.115l-.022-.019v-.018l.021-.018h.044l.238.079a.744.744 0 0 1 .36-.079h.108l.058-.06-.123-.043-.021.024h-.022l-.13-.024-.346.024h-.353l-.216.018-.187-.018-.584.018-.23-.042-.238.024L25 16.97l-.166.024-.187-.024-.094.024-.08-.024-1.022.042-.174-.018-.064.018-.296-.018h-.086l-.382.018-.21-.018-.136.097c-.115 0-.192.05-.23.152 0 .02-.073.04-.217.06l-.1.019c-.04.1-.111.151-.217.151-.154.113-.245.17-.274.17l-.13-.018c-.398.178-.598.311-.598.4-.01.113-.028.17-.057.17h-.346l-.216.018-.022-.055c.615-.638.922-1.243.922-1.813l-.021-.175.021-.049-.043-.788.022-.055-.022-.667v-4.148l.022-.497-.022-.018.022-.09v-.783l-.022-.461c.03-.069.044-.202.044-.4v-.691l.108-.11v-.018c0-.028-.022-.042-.065-.042l-.151.06-.087-.018v-.042l.043-.06-.043-.055-.187.036-.044-.055v-.054l.044-.06.144.017h.043l.065-.036h.043c.043 0 .065.032.065.097h.065l.209-.14v-.018l-.043-.151c.057 0 .086-.02.086-.06V6.74h-.108l-.043-.036.043-.043h.216c.087.049.13.114.13.195l-.173.285.021.024c.221-.097.351-.174.39-.23v-.019l-.03-.024v-.018l-.107.018h-.044v-.055l.087-.115c-.082-.036-.123-.08-.123-.133l.101-.037c-.043-.141-.098-.212-.165-.212-.039 0-.068.045-.087.133-.048.04-.12.061-.216.061l-.123-.079c0-.153.07-.23.21-.23.1 0 .15-.014.15-.043-.37 0-.554-.062-.554-.188-.365-.303-.577-.454-.634-.454.057.178.2.355.425.533 0 .049.02.1.057.152l-.122.291.043.127h-.043l-.115-.072h-.015c-.072.06-.137.09-.194.09-.159-.024-.238-.08-.238-.17v-.57l.022-.115c-.097-.17-.145-.317-.145-.442l.022-.11-.021-.115.086-.06 1.722-.037zm.02 1.201l.03.018.036.043.108-.018h.065l.079.054a.107.107 0 0 0 .086-.079l-.165-.036h-.13l-.108.018zm.195.31l.087.036c.067-.016.1-.035.1-.055v-.042l-.086-.019c-.062.025-.096.051-.1.08zm.57.036v.151l.021.134h.022l.05-.188v-.097l-.05-.037-.043.037zm-2.45.133h.021l.05.043v.09h-.05l-.021-.09v-.043zm2.471.194v.152c.034 0 .05-.018.05-.055l-.028-.097h-.022zm-1.362.358l.022.018v.024l.086-.06-.043-.037-.065.055zm-.547.194l.021.018v.018l-.302.134-.044-.037c0-.08.108-.125.325-.133zm-.54.188l.158.115-.137.134c0 .052-.015.078-.043.078l-.022-.018v-.06l.043-.061-.043-.17.022-.018h.021zm8.25 9.356l.022.019h.021c.03-.005.058-.035.087-.091l-.022-.019h-.043c-.034 0-.055.03-.065.091zm-4.266.019l.18.097h.166c.125.024.187.068.187.133l-.064.079-.145-.018v.036h-.021l.122.212-.166.055c-.177-.06-.276-.12-.295-.176l.1-.091c-.047-.117-.11-.176-.186-.176-.02 0-.049.053-.087.158l-.108.018h-.108c-.067 0-.108-.077-.123-.23.053-.053.152-.08.296-.08v.025l.252-.042zm-1.254.06l.044.037v.133h-.044c0-.04-.029-.091-.086-.152l.021-.018h.065zm.469.018h.043c.029.008.058.039.086.091a.252.252 0 0 1-.151.061l-.043-.079.065-.073zm2.068.055h.13l.064.06c0 .081-.108.126-.324.134h-.043c-.096-.053-.144-.105-.144-.158l.021-.018h.044l.079.018.173-.036zm3.005.079l-.022.097c.087.028.13.064.13.109h.021v-.018c-.038-.126-.074-.188-.108-.188h-.021zm-5.52.097h.021l.044.036-.065.055-.043-.037v-.018l.043-.036zm4.518.151v.061h.058c.077 0 .122-.02.137-.06v-.019c0-.028-.022-.042-.065-.042-.087.012-.13.032-.13.06zm-4.749 0h.022l.065.061-.043.03-.094-.054.05-.037zm1.124 0h.065l.022.019.022-.019h.021a.338.338 0 0 1 .151.152c0 .19-.079.285-.237.285v.152l-.022.024v.018l.022.018-.065.043h-.065c-.072 0-.12-.027-.144-.08v-.042c.082-.1.166-.151.252-.151l-.065-.206c.058 0 .087-.02.087-.061v-.042l-.044-.03h-.108v-.061l.108-.019zm1.896.019v.06h.108v-.018l-.044-.042h-.064zm-3.582.248h.022l.065.055v.018l-.044.042h-.021l-.058-.06v-.018l.036-.037zm.728.037c.087 0 .13.044.13.133v.024l-.065.049c-.106-.045-.168-.087-.188-.128v-.018c.015-.04.056-.06.123-.06zm1.722 0h.108c.063.02.094.064.094.133v.024l-.043.037h-.072l-.123-.097v-.061l.036-.036zm-2.897.097h.065c.072.076.18.14.325.188v.06l-.044.043c-.283 0-.425-.035-.425-.103l-.238.024v-.024l-.021-.08.043-.072.108.024a.28.28 0 0 0 .187-.06zm1.665.06c.038 0 .067.05.087.152v.018l-.044.036h-.086l-.022-.018-.122.043h-.022l-.043-.043c.081-.125.166-.188.252-.188zm2.385 0c.058.02.087.063.087.128v.042l-.044.036h-.043l-.08-.018-.129.043-.029-.061c.072-.113.152-.17.238-.17zm-.706.049h.043c.058.052.11.079.159.079l.036.06-.08.043-.115-.025-.166.025-.021-.025v-.018a.339.339 0 0 1 .144-.14zm-2.573.042h.044l.194.06.123-.023.065.06c-.082.029-.26.043-.534.043l-.036-.061.145-.079zm1.86 0h.036c.038.04.137.06.295.06l.022.019v.018c-.068.029-.23.043-.49.043l-.058-.025v-.018c0-.04.065-.073.195-.097zm4.597.328h.065c.053.02.08.064.08.133v.018l-.023.08.065.133h-.064c-.068-.081-.13-.122-.188-.122l-.086-.072v-.019l.151-.151zM36.745 5.103h.022c.144 0 .305.115.483.346.255.198.598.543 1.03 1.037.063.012.202.145.418.4l.159.382-.087.327.065.194-.029.328c.039 0 .084.178.137.533v.613c0 .073-.029.12-.086.14h-.022c-.077 0-.346-.187-.807-.559l-.792-.63c-.049 0-.152-.059-.31-.176-.005.097-.183.236-.534.418l-.338.158a.876.876 0 0 1-.469.273 1.01 1.01 0 0 0-.144.321h-.029c-.139-.141-.237-.212-.295-.212-.23 0-.346.07-.346.212 0 .118-.036.176-.108.176h-.022c-.033 0-.05-.028-.05-.085h-.202c-.158 0-.252-.157-.28-.473l-.253-.151h-.108c-.077 0-.13.024-.159.072l.137.08-.021.418v.036l.064 1.267-.021.31.021.188-.021.024v.018l.065.594-.022.115c.01.599.053.898.13.898.024 0 .055-.045.093-.133L34 12.537v-.018l.065-.612-.05-.17.021-.206-.022-.116.05-.272-.028-.152c.038-.218.084-.327.137-.327h.022c.024 0 .052.088.086.266a.26.26 0 0 0 .159.061l.086-.018v-.043l-.05-.109c.038-.077.07-.115.093-.115l-.021-.103v-.073l.266-.14-.086-.108v-.037c.019-.093.048-.143.086-.151.072.024.108.095.108.212l-.064.085v.194c-.03.052-.065.079-.109.079v.042l.137.043.108-.061h.015l.108.073h.058v-.037l-.072-.157c.004-.304.093-.455.266-.455.014-.117.039-.176.072-.176h.015v.06l.043.225-.058.194.087.346-.03.327c.035.101.056.362.066.782.057.069.11.103.158.103l.627.012.152-.012.021.012.173-.012c1.484 0 2.227.043 2.227.128l.043.309-.022.17.022.212-.022.267.022.503-.022.764.022.31c-.02.06-.04.09-.065.09l-.576-.649-.022-.018h-.022l-.209.267h-.021l-.418-.018-.663.018h-1.312c-.052 0-.084.115-.093.346 0 .65-.022 1.374-.065 2.17v.207l.425.958.18.455c0 .04.118.145.353.315v.036l-.021.018h-.137c-.058 0-.13-.044-.216-.133-.082 0-.202-.058-.36-.176a.44.44 0 0 1-.354-.151c-.043 0-.14-.059-.288-.176-.106-.024-.29-.111-.555-.26h-.072c0 .096-.094.177-.281.242l-.022-.012v-.025l.022-.206h-.05l-.058.037h-.166c-.082 0-.146-.039-.194-.116v-.042l.064-.079h-.043c-.12.016-.322.121-.605.315.029.04.149.071.36.091 0 .037.06.063.18.08l.173-.043.166.14v.054l-.1.036-.174-.115-.28.079h-.051l-.116-.097-.13.06h-.086c-.057 0-.086-.052-.086-.157h-.108a.565.565 0 0 0-.21.157c.227.117.375.176.447.176l.224-.079.202.091.41.085.317.055c.087-.053.221-.08.404-.08l.065.152-.18.043h-.108l-.18-.043-.195.055-.21-.012-.302.012c-.072-.036-.108-.085-.108-.146h-.08c-.114.098-.215.146-.302.146l-.086-.055v-.17l-.188-.054-.172.037-.137-.116c-.072 0-.24.083-.505.249h-.072l-.036-.037v-.096c.159-.405.26-.88.303-1.425l.021-.34-.043-2.899v-1.685l-.022-.17.022-.133v-.31l-.022-.558.022-.576v-.23c0-.368-.082-.552-.245-.552-.48-.214-.785-.362-.915-.443-.303-.072-.454-.167-.454-.285-.255-.028-.382-.06-.382-.097v-.018a90.757 90.757 0 0 1 3.733-2.11c.413-.259 1.242-.734 2.486-1.425.201-.125.326-.188.374-.188zm-.403-.054l.022.066v.024h-.022l-.036-.066v-.024h.036zm-.202.709h.087l.079-.067v-.024h-.08l-.086.091zm-1.347.279l.029.067-.08.048h-.057v-.048l.108-.067zm.49.042v.073l.079.067.058-.049v-.018l-.08-.073h-.057zm-2.09.43h.029l-.058.05h-.029l.058-.05zm.137.577v.042c0 .049.074.08.223.091l.23-.109c-.028-.069-.064-.107-.107-.115h-.23l-.116.09zm.562.346l.094.248-.202.206v.14c0 .056.036.117.108.182.22-.025.331-.055.331-.091v-.14c-.105-.052-.158-.129-.158-.23l.08-.267-.109-.09h-.05l-.094.042zm.44.206c-.087.036-.13.097-.13.182v.018l.043.048h.166l.079-.066c0-.093-.053-.154-.159-.182zm.187.248v.122l.058.066.086-.066V7.91l-.086-.073-.058.048zm-.404.48c0 .024.063.054.188.09l.079-.018v-.024l-.137-.115h-.043l-.087.066zm-.67 3.874v.018c.168.194.385.378.649.552 0 .04.132.162.396.364h.058v-.024c-.13-.09-.195-.172-.195-.249l-.26-.158v-.188c.111-.088.207-.133.289-.133h.08l.172.133h.029a.395.395 0 0 0 .367-.224h.08c.134.004.202.018.202.043l.237-.067c.452.044.913.067 1.384.067l.029-.025h.028c.332 0 .558.093.678.28l.108.024v-.049c0-.073-.103-.194-.31-.364l-.533-.024-1.362.042-.908-.042-.144.024-.245-.024-.829.024zm-2.45 6.343c.183.02.274.05.274.09l-.432.116h-.03c-.095 0-.148-.024-.158-.073v-.018c0-.044.116-.083.346-.115zM44.038 5h4.943c.312 0 .469.044.469.133l.014.08-.014.94.064 2.11-.144.078-.893-.46c0-.057-.154-.126-.461-.207h-.267l-.245-.018-.187.018-.152-.018a4.901 4.901 0 0 1-.893.115 3.185 3.185 0 0 1-.822-.212c-.081 0-.146.083-.194.249v.018c.024.048.079.072.165.072h.08a.313.313 0 0 1 .165-.048l.188.048.08-.018v.043l-.217.17h-.151c0 .032-.097.145-.289.34h-.122c-.144-.106-.216-.177-.216-.213L44.6 8.17c-.096.09-.144.158-.144.207v.054c.014.04.062.06.144.06h.022l.194-.06c.144.02.216.047.216.079v.055a.352.352 0 0 1-.288.133c0 .024-.074.105-.223.242v.043l-.015 1.08.015.096-.015.146.015.194-.015.06.015.377-.015.551.015 1.213v1.364c0 .11.3.439.9.989.101.125.2.188.296.188.355-.198.579-.342.67-.43l.151-.14c-.13-.271-.194-.44-.194-.51l.021-.024h.072l.346-.012.116.036.201-.024.281.024c.14-.064.238-.097.296-.097v-.036h-.562l-.461.018c-.13 0-.274-.089-.433-.267-.547-.404-.821-.675-.821-.812 0-.101.322-.166.965-.194l1.456.024.512-.024.216.024.238-.024.079.024.944-.042.44.018c.033.028.072.176.115.442l.021.019-.093.303v.43l.021.722-.021.8v.704l-.03.533c.078.461.207.776.39.946.149.025.23.233.245.625-.043.315-.084.473-.123.473l-.216.024h-1.643l-.511-.024-.022.024h-.029l-.144-.024h-.05l-.26.042c-.149 0-.4-.184-.756-.551-.15-.296-.262-.443-.339-.443-.067 0-.221.109-.461.327l-.656.473c-.255.065-.384.116-.39.152 0 .056-.047.1-.143.133l-.433-.34c-.48-.476-.754-.737-.821-.782-.245-.157-.716-.6-1.412-1.328-.39-.323-.622-.555-.7-.697-.485-.351-.727-.606-.727-.764l-.05-.17v-.903l-.022-.576.021-.055-.021-.588v-.625l.021-.873-.021-.345.021-2.517v-.46l-.021-.073c.024-.126.314-.417.872-.874l1.26-1.152.822-.764.094-.018zm2.284 1.195l-.706-.019-.072.019v.018c0 .02.058.046.173.079l.36-.037.245.018.115-.018.13.037.62-.061h.1v-.018c0-.024-.047-.037-.143-.037v-.024l-.173.024-.404-.024-.245.043zm-1.506.32h.072c.034.001.06-.035.08-.108h-.051c-.067.024-.1.06-.1.109zm-.194.134v.019h.028l.05-.037v-.036l-.078.054zm.994.176l.022.073h.13c.023 0 .062-.044.115-.133l-.03-.019h-.165l-.072.08zm2.81.03l-.021.098.021.133-.072.133a.272.272 0 0 0 .144.128l.072-.03h.08l.065.054c0 .065-.022.103-.065.115l-.152-.036-.021.109.144.079.094-.018c.177.048.266.141.266.278 0 .073.034.12.101.14h.022v-.036c-.144-.384-.274-.64-.39-.764-.086-.219-.165-.346-.237-.382h-.05zm-3.459.322v.06c.02.053.092.08.217.08a.981.981 0 0 1 .317-.08c-.058-.153-.156-.23-.296-.23h-.05v-.012c-.125.044-.188.105-.188.182zm-.778-.091c0 .024-.146.125-.44.303l-.093.17.194-.055.166.019v-.019l.022-.018-.022-.018v-.133c.068-.045.101-.101.101-.17.063 0 .094-.02.094-.06v-.02h-.022zm.022.212v.018l.173.055c.125-.012.187-.063.187-.152a.196.196 0 0 0-.115-.115h-.022c-.149 0-.223.065-.223.194zm3.906-.151l-.03.109h.073l.021-.018h.03c-.035-.057-.066-.087-.094-.091zm-2.573.151v.018l.094.091h.05c0-.04-.048-.076-.144-.109zm-1.405.51c0 .06.072.09.216.09h.05a.413.413 0 0 1 .217-.048v-.024c-.096-.166-.202-.249-.318-.249-.11.085-.165.162-.165.23zm-.728-.037h.029c.024 0 .072-.044.144-.133h-.029c-.096.032-.144.077-.144.133zm-.288.267c.091 0 .146-.053.166-.158h-.022c-.096.029-.144.081-.144.158zm-.267 1.383v.533l-.022.376.044.649.029.018h.043c.033-.056.067-.303.1-.74l-.028-.23v-.134c.053-.12.086-.355.1-.703l-.05-.17h.03l-.03-.018v-.018l.05-.23c-.066-.203-.124-.304-.172-.304-.063 0-.094.324-.094.97zm.022 1.758v.31h.029c.028 0 .043-.04.043-.116h.021l-.043-.194h-.05zm2.788 2.359l.411.4.094.17c-.091.15-.137.25-.137.303 0 .045.038.107.115.188v.042h-.05c-.087 0-.19-.21-.31-.63-.063 0-.103-.158-.123-.473zm1.19.91h.021c.087 0 .144-.027.173-.08v-.018l-.05-.036h-.08c-.038 0-.06.044-.065.133zM9.327 18.884l.029.018-.03.097v.036c.212.21.633.566 1.262 1.067 0 .04.267.271.8.692.533.444.83.713.893.806.077 0 .279.172.606.515.038 0 .377.257 1.016.77.168.162.252.273.252.334v.018l-.05.037c-.049-.029-.397-.067-1.046-.116 0-.024-.057-.038-.172-.042h-.282c-.413.356-.78.647-1.102.873l-.822.691c-.21.227-.316.356-.316.389v.018c.052 0 .079.014.079.042l-.05.14.071.097c.125-.037.188-.095.188-.176h.079l.39.194c.066.02.1.067.1.14-.02.048-.053.072-.1.072 0 .069.071.103.215.103h.05l.267-.042c.082.15.188.224.317.224.26.202.5.32.721.352.01.036.123.097.339.182l.093.097v.036l-.065.06c.034.061.065.096.094.104h.072a.257.257 0 0 0 .18-.085h.022c.087 0 .214.073.382.218h.029v.037l-.433.145-.201-.121-.094.018-.151-.042h-.044v.024l.065.133c-.029 0-.05.067-.065.2l-.389.116-.021.018v.024c.067.105.146.158.237.158.116-.017.337-.101.663-.255a2.23 2.23 0 0 0 .62-.297l.295-.037c.097 0 .145.13.145.389l-.072 3.632c0 .17.064.418.194.746 0 .089.13.242.39.46l.41.407v.06a.406.406 0 0 1-.194.061c-.13 0-.445-.125-.944-.376l-.073-.018h-.05l-.122.018c0-.077-.169-.188-.505-.333-.375-.21-.634-.33-.778-.358-.058-.105-.137-.158-.238-.158h-.252l-.505-.018-.648.018h-.922l-.75-.018-.08.018-.266-.018-1.607.018-.021.018h-.03l-.093-.018h-.094c-.144 0-.285.027-.425.079l-.201-.018-1.089.83c-.413.393-.689.589-.828.589-.096-.029-.144-.075-.144-.14l.05-.097-.029-.157c.212-.178.317-.389.317-.631.034 0 .05-.067.05-.2h.015l-.014-.928v-5.36l.014-2.147c.02-.048.21-.162.57-.34.667-.456 1.061-.685 1.181-.685h.03l.078.061-.028.14v.472l-.022.152.022.158v.078l.043.831-.015.316.015.139-.015.315.015.316-.015.097.044.594h.05v-.043l.065-.236v-.194l.194-1.419c.145-.044.217-.158.217-.34v-.06c0-.049-.039-.107-.116-.176v-.06c.096-.187.144-.356.144-.51v-.06c-.086 0-.13-.047-.13-.14v-.055c.054-.04.111-.145.174-.315.048-.04.34-.06.879-.06.178 0 .266.072.266.218v.097l-.072.49.022.492-.022.382c.02.105.05.158.094.158.072 0 .404-.205.994-.613l.332-.224v-.018a.715.715 0 0 1-.166-.237c-.072-.004-.223-.127-.454-.37-.029 0-.11-.058-.245-.176-.067-.016-.211-.095-.432-.236v-.018c.077-.263.156-.639.238-1.128l.165-.649-.072-.024c-2.176 1.002-3.502 1.588-3.977 1.758l-1.838.061c-.096-.012-.144-.032-.144-.06.135-.114.757-.443 1.866-.99.644-.363 2.001-1.078 4.072-2.146.13-.117.26-.175.389-.175zm1.556-.11h.03v.049l-.03.024h-.028l-.03-.024.058-.049zm1.442 2.93v.048l.05.048.094-.073v-.024l-.065-.048h-.03l-.05.048zm-1.305 1.121c-.206 0-.31.024-.31.073.01.032.058.062.144.09.24-.007.36-.03.36-.066v-.024l-.086-.073h-.108zm.526.26v.098l.116.163-.03.025v.17l.138.018h.029l.028-.091c-.081-.303-.137-.455-.165-.455h-.03l-.086.073zm-.807.546v.073c.043.065.091.097.144.097.15-.012.224-.036.224-.072v-.025c0-.097-.048-.145-.144-.145l-.224.072zm-.41 0v.049h.021l.058-.049h-.08zm-2.17.552h-.634a1.31 1.31 0 0 0-.446.073c0 .089.158.287.475.594 0 .105.101.176.303.212h.021c.221-.064.332-.135.332-.212a2.11 2.11 0 0 1 .584-.14c.067.126.132.189.194.189l.173-.024.137.048.166-.145H9.6l.562.145h.05v-.048a9.12 9.12 0 0 0-1.117-.668c-.005-.032-.05-.062-.137-.09l-.324.024-.166-.024-.31.066zm-1.888.503v.14l.05.049.03-.122-.03-.115-.05.048zm1.607.067l.03.024h.028l.029-.024h.029l.137.024v.049H8.1l-.078-.024-.166.097-.115-.073c0-.036.045-.06.136-.073zm-1.578.218l-.029.116.05.048v-.164h-.02zm4.245.067c.096.012.19.069.28.17-.143 0-.237-.04-.28-.121v-.049zm-2.638.122l-.029.024v.072l.087.067h.137l.057-.042v-.049c0-.04-.084-.064-.252-.072zm3.358.285v.024h-.021l-.087-.073v-.024l.108.073zm2.227-.073h.029l.057.048v.049h-.144v-.049l.058-.048zm-5.224.097l-.058.072.086.261c-.052 0-.098.461-.137 1.383l.05.212-.05 1.007.022.473-.05.83c.033.097.108.146.223.146h.973l.166.024.028-.024.476.024h.548c.187 0 .28-.064.28-.194v-.88l-.021-.26.022-.31v-.927c0-.182-.13-.317-.39-.406l-1.31-.716a2.116 2.116 0 0 0-.52-.358c0-.068-.113-.187-.338-.357zm6.002 5.27h.195l.028.066c0 .048-.019.073-.057.073h-.137l-.086-.073v-.018l.057-.049zm-1.283.375l-.028.024v.025l.028.024h.03l.028-.024v-.025l-.029-.024h-.029zm1.254.049l.058.048h.029l-.058-.048h-.029zm-.944.17l.058.048h.058l.05-.049-.05-.048h-.058l-.058.049zm-5.166.187h.028l.05.049v.024l-.05.049h-.057l-.058-.049.087-.073zm6.362.698v.024l.08.067.086-.067v-.024l-.057-.049h-.058l-.05.049zm1.132.188h.202c.096 0 .197.062.302.188v.072c-.447-.064-.67-.119-.67-.163v-.025c.02-.048.075-.072.166-.072zM22.52 19.15c.087 0 .356.156.808.467.413.287.747.463 1.002.528.403.267.754.454 1.052.564l1.217.715c.303.255.553.404.75.449.14.174.343.305.612.394.063.085.118.229.166.43-.038.102-.067.296-.086.583l.029.394-.05.267.02.018v.018l-.02.055.02.564v.752l-.02.34.02.314v.437l-.079.788.03.522v.812l.028.073-.029.073v.248l.03.334c0 .141-.114.305-.34.491-.22.158-.422.271-.605.34-.005.024-.173.123-.504.297-.245.206-.632.457-1.16.752 0 .028-.205.165-.613.412l-.44.285c0 .04-.25.196-.749.467-.264.19-.497.321-.699.394 0 .06-.055.117-.166.17-.091 0-.247-.087-.468-.26a2.928 2.928 0 0 1-.584-.456c-.73-.464-1.57-1.09-2.522-1.873l-.389-.322-.944-.679c-.13-.02-.195-.056-.195-.109l.058-.321-.029-.091c.015-.178.034-.267.058-.267l-.058-.449.03-1.54.078-.673-.028-1.164.115-.267v-1.668l-.029-.17c0-.088.574-.527 1.722-1.315 0-.029.332-.28.995-.752 1.23-.914 1.868-1.37 1.917-1.37h.05zm-.273 2.238v.018h.058l.05-.042v-.055l-.108.079zm.497.503v.037l.087.018v-.055h-.087zm-1.218.206v.06l.44.146h.058l.086.019v-.018l.08-.146c-.198-.142-.344-.212-.44-.212a.335.335 0 0 0-.224.151zm-.583.243h.029l.137-.018.194.018.029-.018-.029-.128v-.036c0-.028.029-.043.087-.043l.021-.054-.021-.018h-.03c-.278.121-.417.22-.417.297zm1.859-.073l.029.018h.029l.194-.018v-.036l-.029-.097h-.086c-.043.008-.089.052-.137.133zm-.418-.073a.303.303 0 0 0-.108.17l.029.073.389-.097v-.055a.887.887 0 0 1-.31-.09zm-.915.43v.019c.02.036.074.055.166.055h.115l.194-.055c.039 0 .176.075.411.224h.087l.108-.17a.8.8 0 0 1-.274-.224l-.137.018c-.038 0-.058-.018-.058-.054l-.086.018-.303-.054h-.029c-.13.048-.194.123-.194.224zm1.607.207a1.945 1.945 0 0 1-.411-.09c0 .21-.055.314-.166.314h-.028c-.039 0-.058-.018-.058-.054l-.029.018h-.029l-.303-.073c-.168.069-.252.138-.252.206.039.057.077.087.116.091h.136l.282-.054.165.09a.282.282 0 0 1-.252.134h-.086c0 .045-.082.125-.245.243v.224l-.03.079.03.073v.115l.028.242-.028.073.136 3.026-.057.243.057.582-.057.206c.014.113.44.47 1.275 1.073h.087a4.24 4.24 0 0 0 1.023-.679l.144-.188-.029-2.983v-2.274c0-.06-.11-.16-.331-.297 0-.025-.13-.107-.39-.249-.067-.085-.206-.166-.417-.243-.106 0-.2.051-.281.152zm-2.796-.036v.018h.05a.254.254 0 0 0 .144-.115h-.057c-.048.008-.094.04-.137.097zm-.31.958l.029.054-.029.207v.285l.029.412-.029.17.058.69.029.019h.028l.08-.17-.03-.018.058-.297-.028-.06.028-.092-.028-.34.115-.448-.029-.527.029-.17c-.082-.174-.137-.261-.166-.261h-.029c-.062 0-.1.182-.115.546zm.058 2.007v.242l.057.043.03-.097v-.091l-.03-.134-.057.037zM33.935 19.15c.087 0 .356.156.807.467.413.287.747.463 1.002.528.403.267.754.454 1.052.564l1.218.715c.302.255.552.404.75.449.138.174.343.305.612.394.062.085.117.229.165.43-.038.102-.067.296-.086.583l.029.394-.05.267.02.018v.018l-.02.055.02.564v.752l-.02.34.02.314v.437l-.078.788.029.522v.812l.028.073-.029.073v.248l.03.334c0 .141-.114.305-.34.491-.22.158-.422.271-.605.34-.005.024-.173.123-.504.297-.245.206-.632.457-1.16.752 0 .028-.204.165-.613.412l-.44.285c0 .04-.25.196-.749.467-.264.19-.497.321-.699.394 0 .06-.055.117-.166.17-.09 0-.247-.087-.468-.26a2.928 2.928 0 0 1-.584-.456c-.73-.464-1.57-1.09-2.522-1.873l-.389-.322-.944-.679c-.13-.02-.194-.056-.194-.109l.057-.321-.029-.091c.015-.178.034-.267.058-.267l-.058-.449.03-1.54.079-.673-.03-1.164.116-.267v-1.668l-.029-.17c0-.088.574-.527 1.723-1.315 0-.029.331-.28.994-.752 1.23-.914 1.869-1.37 1.917-1.37h.05zm-.274 2.238v.018h.058l.05-.042v-.055l-.108.079zm.497.503v.037l.087.018v-.055h-.087zm-1.217.206v.06l.44.146h.057l.086.019v-.018l.08-.146c-.197-.142-.344-.212-.44-.212a.335.335 0 0 0-.223.151zm-.584.243h.029l.137-.018.194.018.03-.018-.03-.128v-.036c0-.028.03-.043.087-.043l.021-.054-.021-.018h-.029c-.279.121-.418.22-.418.297zm1.86-.073l.028.018h.029l.194-.018v-.036l-.028-.097h-.087c-.043.008-.089.052-.137.133zm-.419-.073a.304.304 0 0 0-.108.17l.029.073.39-.097v-.055a.887.887 0 0 1-.31-.09zm-.915.43v.019c.02.036.075.055.166.055h.115l.195-.055c.038 0 .175.075.41.224h.087l.108-.17a.8.8 0 0 1-.274-.224l-.137.018c-.038 0-.057-.018-.057-.054l-.087.018-.303-.054h-.028c-.13.048-.195.123-.195.224zm1.607.207a1.943 1.943 0 0 1-.41-.09c0 .21-.056.314-.166.314h-.03c-.038 0-.057-.018-.057-.054l-.029.018h-.029l-.302-.073c-.168.069-.252.138-.252.206.038.057.076.087.115.091h.137l.28-.054.166.09a.282.282 0 0 1-.252.134h-.086c0 .045-.082.125-.245.243v.224l-.029.079.029.073v.115l.029.242-.03.073.138 3.026-.058.243.058.582-.058.206c.014.113.44.47 1.276 1.073h.086c.418-.206.76-.432 1.023-.679l.144-.188-.028-2.983v-2.274c0-.06-.11-.16-.332-.297 0-.025-.13-.107-.389-.249-.067-.085-.207-.166-.418-.243-.106 0-.2.051-.281.152zm-2.796-.036v.018h.05a.254.254 0 0 0 .145-.115h-.058c-.048.008-.094.04-.137.097zm-.31.958l.03.054-.03.207v.285l.03.412-.03.17.058.69.029.019h.029l.079-.17-.029-.018.058-.297-.03-.06.03-.092-.03-.34.116-.448-.029-.527.03-.17c-.083-.174-.138-.261-.167-.261H31.5c-.063 0-.101.182-.116.546zm.058 2.007v.242l.058.043.028-.097v-.091l-.028-.134-.058.037zM46.574 19.284c.553.32 1.048.645 1.485.976.994.671 1.564 1.067 1.708 1.188.523.283.785.476.785.576l-1.03.734c0 .024-.039.037-.116.037a.383.383 0 0 1-.36.212c-.245.335-.41.507-.497.515h-.022c-.35-.13-.768-.34-1.254-.63l-.72-.522c0 .053-.024.079-.072.079h-.022l-.151-.036v.018l-.03.073.03.078c-.005.04-.058.08-.159.116-.144-.009-.228-.035-.252-.08h-.022v-.114l.05-.037.087.037c.092-.029.137-.073.137-.134l-.115-.073h-.022l-.403.134v.133c0 .045.081.077.245.097l.021.073c-.163.036-.245.095-.245.176l.044.133-.137.097c-.072 0-.108-.014-.108-.042-.063 0-.094.052-.094.158-.12.032-.18.056-.18.072v.097c0 .142.197.295.59.461.034.057.258.16.67.31.183.113.303.214.361.303.178 0 .627.212 1.348.636.72.291 1.08.502 1.08.63v.061h.138c.13 0 .578.193 1.347.577.226.04.339.186.339.436l.36 3.166.086 1.073v.018c0 .069-.021.107-.064.115h-.072a2.555 2.555 0 0 1-.584-.188c-.101 0-.334-.083-.7-.248h-.129a2.91 2.91 0 0 0-.403.479 5.272 5.272 0 0 1-.743.418c-.067.077-.254.192-.562.346l-1.24-.037-.136.018-.288-.018-.094.018-.086-.018c-1.355.016-2.306.043-2.854.08l-.432-.043h-.108c-.068 0-.159.058-.274.175l-.288.134c-.154 0-.387.083-.7.248l-.403.134c-.192 0-.387.097-.584.291a.327.327 0 0 0-.201-.079l-.022.018h-.022c-.072-.024-.11-.05-.115-.078 0-.081.233-.31.699-.686 0-.036.18-.196.54-.479l2.94-2.589c.053-.077.12-.115.202-.115h.022l.029.71v.187l.021.291-.05.364c0 .09.158.134.475.134l.116-.019 2.111.037h.339c.072 0 .115-.027.13-.08l-.34-2.988c-.08-.114-.657-.409-1.729-.886a116.551 116.551 0 0 0-3.459-1.8 26.658 26.658 0 0 0-1.686-.862l-.021-.097c.168-.214.49-.483.965-.806.024-.049.495-.439 1.413-1.17.081-.098.996-.825 2.745-2.184.418-.36.666-.54.742-.54zm-3.459 4.123h.065c.058 0 .17-.065.34-.194l.064-.073c.158 0 .264-.076.317-.23.043 0 .214-.115.512-.346l.137-.018.043.133-.022.249h.022l.05.036.022-.018h.065c0 .033.03.053.093.06l-.021.116c0 .137.029.206.086.206.077-.02.116-.058.116-.115l-.116-.249c.063-.02.123-.097.18-.23.164 0 .245-.095.245-.285-.053-.089-.12-.133-.201-.133-.005.125-.065.188-.18.188l-.022.024v.188c-.12.1-.18.165-.18.194h-.022l-.043-.043a.247.247 0 0 0 .065-.17v-.018l-.044-.133a.458.458 0 0 0 .159-.212c.1 0 .197-.09.288-.267h.094l.245.152c.149-.053.223-.112.223-.176l-.021-.018v-.019l.072-.17-.18-.042v-.036a.6.6 0 0 1 .31-.194l.223.06a.478.478 0 0 1 .209-.078l.021.018v-.073c0-.117-.03-.176-.093-.176v-.018c0-.028.038-.047.115-.055l.022.018.065.019v.018l.072-.018v-.116l.043-.23-.022-.018h-.021l-.793.576c-.043 0-.401.255-1.074.764l-.9.612-.628.485v.055zm3.034-2.092h.065l.022.018h.021l-.043.116.022.096-.108.019v-.018l-.072.018c-.087-.012-.13-.03-.13-.055v-.036c.057-.105.132-.158.223-.158zm-.252.503c.058.037.11.055.159.055h.021l.05-.036-.093-.08h-.065l-.072.061zm.296.188c.057.142.117.213.18.213.038-.009.074-.04.108-.097-.15-.053-.224-.104-.224-.152h-.021l-.043.036zm3.192.152l.086.042c.087-.02.147-.052.18-.097v-.036l-.13-.043c-.09.02-.136.065-.136.134zm-.606-.036c.044.165.08.248.108.248l.296-.23v-.018c-.014-.04-.082-.067-.202-.08-.11 0-.178.027-.202.08zm.988-.08v.025l.064.055h.072v-.019l-.072-.06h-.064zm-4.454.674v.042h-.021l.021.018v.019l-.021.018v.018l.043.079c.091-.029.137-.055.137-.079v-.036c-.024-.053-.077-.08-.159-.08zm-1.009.176v.036l.065.018.094-.018v-.018l-.05-.043-.108.025zm.808.054v.018c0 .065.03.104.093.116l.087-.019-.022-.078.022-.055-.022-.018h-.115l-.043.036zm-.563 6.792c-.12.295-.18.487-.18.576h.022c.154-.146.23-.3.23-.461v-.115h-.072zm-.18.71l-.043.054v.176c.029 0 .082-.051.159-.152-.015-.053-.053-.079-.116-.079zM62.723 19.466l.187.018.498-.018h1.181c.255 0 .382.068.382.206l.029.072-.029.516v.242l-.029.019.03.018v1.85c0 .161-.027.242-.08.242-.144-.113-.375-.206-.692-.279-.418-.218-.728-.336-.93-.352h-.547l-1.074.018-.302-.018-.224.037c-.144-.04-.216-.083-.216-.128h-.029l-.057.037.057.054v.018l-.057.207v.109l.028.073-.028.018.028.685v.406l-.028.206.057.188-.029.255.03.794-.03.08.03.108v.146a.78.78 0 0 1-.08.315v4.312l.022.351-.022.08.022.127-.022.442v.073c0 .06.072.13.216.206 0 .065.156.218.468.46.404.397.834.793 1.29 1.19l.03.054-.08.036-.634-.036-1.045.036-.245-.018h-.029l-.195.018-.194-.018-.88.018-.186-.018-.498.018h-1.181l-.166.019-.137-.019h-.08l-.115.019-.187-.019h-.605l-.108.019-.116-.019h-.079l-.41.019-.03-.055.685-.63c.384-.453.577-.83.577-1.129v-.054l-.03-.243.03-.072-.051-.813.022-.06-.022-.498v-1.94l-.029-.376.029-.37v-1.831l.022-.352-.022-.018.022-.316v-.533l-.022-.461.022-.485v-.552l-.022-.188a.298.298 0 0 0 .166-.09v-.037l-.166-.018-.223.127c-.092 0-.137-.012-.137-.037l-.03.019h-.468l-.108-.019c-.057.02-.321.039-.792.055a1.532 1.532 0 0 0-.44-.055l-.302.019-.253-.055.03-.09v-.019l-.195.036v.019c0 .02.055.044.165.072v.037c-.312.234-.52.351-.627.351l-.273.182-.058-.036.029-.164-.029-.145.029-.025h.05l.087.043h.079c.053-.016.118-.085.194-.206.145-.04.217-.103.217-.188.057-.158.132-.237.223-.237l.029.018h.029l.382-.109h.165l.03.018h.02l.138-.096v-.037c-.106-.053-.159-.113-.159-.182L54.53 21l.086-.037h.137l-.057.134h.028c.101.016.202.07.303.163.038 0 .094-.06.166-.181h.021l.144.018.217-.188h.028c.072.02.108.056.108.109h.087l.022-.11-.022-.108h-.115l-.137.018-.08-.073v-.018c0-.028.027-.043.08-.043l.166.019.302-.037.245.037a.99.99 0 0 1 .303-.037h.389l.137-.018v-.018l-.548-.018h-.36l-.166.018-.274-.037-.245.019h-.057v-.018l-.195.018h-.382l-.302.018c-.048 0-.341-.184-.88-.552l-.194-.097h-.05c.019.113.192.281.518.503l.137.2a.728.728 0 0 0-.166.298l.274.242v.055l-.137.054c0-.113-.117-.206-.353-.279l-.223.097-.166-.018h-.022v.091c-.028.223-.074.334-.136.334h-.03v-.019l.03-.17-.03-.163.03-.127-.058-.152.029-.073-.029-.26v-.091l.029-.298a.836.836 0 0 1-.195-.388c0-.198.056-.297.166-.297 5.183-.012 8.39-.03 9.62-.054zm1.124.83v.018h.05l.087-.054v-.018h-.058l-.079.054zm-5.772.316h-.274v.018c0 .044.166.077.497.097l.109.055h.079c.134-.09.245-.134.331-.134h.058a.39.39 0 0 0 .216.079c.034 0 .063-.032.087-.097l-.087-.037-.245.019-.245-.018-.36.018-.029-.018-.137.018zm1.24.036l.136.055.743-.073v-.018h-.332l-.44-.018c-.072.02-.107.038-.107.054zm1.62-.018v.018h.051v.018c.15-.012.224-.03.224-.054h-.087l-.187.018zm-5.742.018c.091.02.137.053.137.097l-.116.146h-.05c0-.029-.055-.059-.166-.091v-.073c0-.028.065-.055.195-.079zm-.742.036h.028l.05.043v.018c-.09.065-.136.125-.136.182h-.058l-.05-.182c.019-.04.074-.06.166-.06zm.353.098c.11.008.165.026.165.054l-.029.018h-.079l-.057-.036v-.037zm3.466.297v.036l.05.036a.72.72 0 0 0 .332-.242v-.018l-.108-.073c-.058.02-.15.107-.274.26zm.41-.225v.037c.14 0 .267.11.382.333h.058c.01-.097.029-.145.058-.145-.01-.045-.12-.132-.332-.261h-.108l-.058.036zm-2.442.055l.05.036a.23.23 0 0 1-.108.134l.029.018v.018c0 .085-.11.127-.332.127v.073l.332.133.029.091h.136l.022-.072-.08-.061v-.11l.332-.127c0-.048.017-.072.05-.072h.058a.42.42 0 0 0 .195.072v-.018c.038-.064.146-.097.324-.097 0-.024-.062-.036-.187-.036L57.059 21l-.166-.073c-.149.085-.25.127-.302.127l-.245-.072v-.037h.05v-.018l-.158-.018zm3.185.145l.136.025.109-.08-.03-.017h-.02c-.102 0-.167.024-.195.072zm-4.151.28v.096l.058.037c.254-.033.382-.071.382-.115l-.217-.146h-.028l-.195.127zm3.769-.092c-.096.065-.144.12-.144.164v.297l.057.134h.058c.033 0 .089-.075.166-.225-.03-.238-.075-.362-.137-.37zm4.72.055v.188l-.05.054v.019c0 .064.045.113.136.145l.166-.036.108.018v.073l-.08.06-.223-.036v.018l-.029.055c.116.085.272.127.469.127l.137.152-.03.109a.263.263 0 0 0 .138.109h.029l.057-.036c-.216-.42-.372-.637-.468-.65 0-.112-.091-.248-.274-.405h-.029l-.057.036zm-7.142.224l.195.128c.163-.11.264-.164.303-.164l-.166-.206h-.058c-.182.024-.273.105-.273.242zm.908 0l.03.018c.215-.064.323-.109.323-.133v-.036c-.235 0-.353.05-.353.151zm2.746-.054h.029l.057-.037h-.029l-.057.037zm-.332.018v.073h.087v-.019l-.087-.054zm3.466.018l-.028.091v.018h.079l.029-.018h.029c-.034-.057-.07-.087-.108-.091zm-8.711.018v.055l.057.036h.108l-.086-.09h-.08zm.497.018c0 .025-.03.037-.087.037v.036l.058.037h.137l.029-.073-.137-.037zm.41.073l.08.091.137-.018v-.055l-.108-.036h-.05l-.03.018h-.029zm4.915.11l-.022.017v.043c.015.036.07.055.166.055h.022v-.019a.293.293 0 0 0-.166-.097zm-1.535.26c0 .049-.02.073-.058.073l-.028.63.057 1.577c.063 0 .099-.099.108-.297l-.021-.115c.048-.093.1-.494.158-1.2l.058-.17c0-.203-.091-.369-.274-.498zm-.029 2.426v.018l.029.09h.029v-.145l-.058.037z"/></mask><path fill="url(#paint0_linear)" d="M21.34 5.042l.215.019 1.067-.019.317.019.403-.019c.12 0 .207.037.26.11v.103l-.022.206.022.024-.022.188v1.643l.022.304-.022.303v.8c0 .574-.014.861-.043.861l.022.122-.022 2.383-.043.418v.8l.021.291-.021.073.021.54v.036l-.021.152.021.073-.021.515.021.194-.021.079.021.382v.206l.044.06.252-.017h2.299c.5 0 1.025-.083 1.578-.249.22 0 .667-.184 1.34-.552l.28-.121.023.06-.044.267.022.055-.087.418v.249c0 .226-.036.52-.108.88v.302l-.086.655v.328c-.034.493-.082.74-.144.74-.096-.09-.144-.146-.144-.17l.036-.08a6.646 6.646 0 0 0-.555-1.072l-.022-.019h-.043l-.058.158.015.018v.024c0 .061-.02.098-.058.11h-.043c-.058 0-.087-.063-.087-.188l-.043.036.022.018v.024l-.108.219.216.042.043-.042h.022l.036.042c0 .113-.02.196-.058.249l-.13-.037h-.043l-.022.055.152.043.065-.019v.018l-.044.037-.021-.018-.022.018h-.021c-.044-.024-.15-.043-.317-.055-.125-.117-.36-.176-.707-.176l-.576.025h-.26c-.067 0-.1-.04-.1-.122-.058 0-.087-.02-.087-.06l.022-.012v-.018l-.108-.043-.087.194.022.018-.065.043h-.058c-.077 0-.127-.027-.151-.08v-.042c.038-.064.115-.115.23-.151l.065-.23-.144-.098h-.043c-.12 0-.255.077-.404.23 0-.02-.028-.03-.086-.03l-.022-.024v-.018l.087-.115c0-.024-.053-.043-.159-.055v-.018l.072-.06h.108v-.019c.005-.25.09-.384.253-.4h.065l.108.079h.036c0-.073.079-.113.238-.121.038.113.103.17.194.17h.195l.122.024.108-.073-.021-.024v-.037l.144-.018h.05l.022.018h.021l-.021.018v.055l.043.079h.058c.043-.012.065-.05.065-.115l-.022-.019v-.018l.021-.018h.044l.238.079a.744.744 0 0 1 .36-.079h.108l.058-.06-.123-.043-.021.024h-.022l-.13-.024-.346.024h-.353l-.216.018-.187-.018-.584.018-.23-.042-.238.024L25 16.97l-.166.024-.187-.024-.094.024-.08-.024-1.022.042-.174-.018-.064.018-.296-.018h-.086l-.382.018-.21-.018-.136.097c-.115 0-.192.05-.23.152 0 .02-.073.04-.217.06l-.1.019c-.04.1-.111.151-.217.151-.154.113-.245.17-.274.17l-.13-.018c-.398.178-.598.311-.598.4-.01.113-.028.17-.057.17h-.346l-.216.018-.022-.055c.615-.638.922-1.243.922-1.813l-.021-.175.021-.049-.043-.788.022-.055-.022-.667v-4.148l.022-.497-.022-.018.022-.09v-.783l-.022-.461c.03-.069.044-.202.044-.4v-.691l.108-.11v-.018c0-.028-.022-.042-.065-.042l-.151.06-.087-.018v-.042l.043-.06-.043-.055-.187.036-.044-.055v-.054l.044-.06.144.017h.043l.065-.036h.043c.043 0 .065.032.065.097h.065l.209-.14v-.018l-.043-.151c.057 0 .086-.02.086-.06V6.74h-.108l-.043-.036.043-.043h.216c.087.049.13.114.13.195l-.173.285.021.024c.221-.097.351-.174.39-.23v-.019l-.03-.024v-.018l-.107.018h-.044v-.055l.087-.115c-.082-.036-.123-.08-.123-.133l.101-.037c-.043-.141-.098-.212-.165-.212-.039 0-.068.045-.087.133-.048.04-.12.061-.216.061l-.123-.079c0-.153.07-.23.21-.23.1 0 .15-.014.15-.043-.37 0-.554-.062-.554-.188-.365-.303-.577-.454-.634-.454.057.178.2.355.425.533 0 .049.02.1.057.152l-.122.291.043.127h-.043l-.115-.072h-.015c-.072.06-.137.09-.194.09-.159-.024-.238-.08-.238-.17v-.57l.022-.115c-.097-.17-.145-.317-.145-.442l.022-.11-.021-.115.086-.06 1.722-.037zm.02 1.201l.03.018.036.043.108-.018h.065l.079.054a.107.107 0 0 0 .086-.079l-.165-.036h-.13l-.108.018zm.195.31l.087.036c.067-.016.1-.035.1-.055v-.042l-.086-.019c-.062.025-.096.051-.1.08zm.57.036v.151l.021.134h.022l.05-.188v-.097l-.05-.037-.043.037zm-2.45.133h.021l.05.043v.09h-.05l-.021-.09v-.043zm2.471.194v.152c.034 0 .05-.018.05-.055l-.028-.097h-.022zm-1.362.358l.022.018v.024l.086-.06-.043-.037-.065.055zm-.547.194l.021.018v.018l-.302.134-.044-.037c0-.08.108-.125.325-.133zm-.54.188l.158.115-.137.134c0 .052-.015.078-.043.078l-.022-.018v-.06l.043-.061-.043-.17.022-.018h.021zm8.25 9.356l.022.019h.021c.03-.005.058-.035.087-.091l-.022-.019h-.043c-.034 0-.055.03-.065.091zm-4.266.019l.18.097h.166c.125.024.187.068.187.133l-.064.079-.145-.018v.036h-.021l.122.212-.166.055c-.177-.06-.276-.12-.295-.176l.1-.091c-.047-.117-.11-.176-.186-.176-.02 0-.049.053-.087.158l-.108.018h-.108c-.067 0-.108-.077-.123-.23.053-.053.152-.08.296-.08v.025l.252-.042zm-1.254.06l.044.037v.133h-.044c0-.04-.029-.091-.086-.152l.021-.018h.065zm.469.018h.043c.029.008.058.039.086.091a.252.252 0 0 1-.151.061l-.043-.079.065-.073zm2.068.055h.13l.064.06c0 .081-.108.126-.324.134h-.043c-.096-.053-.144-.105-.144-.158l.021-.018h.044l.079.018.173-.036zm3.005.079l-.022.097c.087.028.13.064.13.109h.021v-.018c-.038-.126-.074-.188-.108-.188h-.021zm-5.52.097h.021l.044.036-.065.055-.043-.037v-.018l.043-.036zm4.518.151v.061h.058c.077 0 .122-.02.137-.06v-.019c0-.028-.022-.042-.065-.042-.087.012-.13.032-.13.06zm-4.749 0h.022l.065.061-.043.03-.094-.054.05-.037zm1.124 0h.065l.022.019.022-.019h.021a.338.338 0 0 1 .151.152c0 .19-.079.285-.237.285v.152l-.022.024v.018l.022.018-.065.043h-.065c-.072 0-.12-.027-.144-.08v-.042c.082-.1.166-.151.252-.151l-.065-.206c.058 0 .087-.02.087-.061v-.042l-.044-.03h-.108v-.061l.108-.019zm1.896.019v.06h.108v-.018l-.044-.042h-.064zm-3.582.248h.022l.065.055v.018l-.044.042h-.021l-.058-.06v-.018l.036-.037zm.728.037c.087 0 .13.044.13.133v.024l-.065.049c-.106-.045-.168-.087-.188-.128v-.018c.015-.04.056-.06.123-.06zm1.722 0h.108c.063.02.094.064.094.133v.024l-.043.037h-.072l-.123-.097v-.061l.036-.036zm-2.897.097h.065c.072.076.18.14.325.188v.06l-.044.043c-.283 0-.425-.035-.425-.103l-.238.024v-.024l-.021-.08.043-.072.108.024a.28.28 0 0 0 .187-.06zm1.665.06c.038 0 .067.05.087.152v.018l-.044.036h-.086l-.022-.018-.122.043h-.022l-.043-.043c.081-.125.166-.188.252-.188zm2.385 0c.058.02.087.063.087.128v.042l-.044.036h-.043l-.08-.018-.129.043-.029-.061c.072-.113.152-.17.238-.17zm-.706.049h.043c.058.052.11.079.159.079l.036.06-.08.043-.115-.025-.166.025-.021-.025v-.018a.339.339 0 0 1 .144-.14zm-2.573.042h.044l.194.06.123-.023.065.06c-.082.029-.26.043-.534.043l-.036-.061.145-.079zm1.86 0h.036c.038.04.137.06.295.06l.022.019v.018c-.068.029-.23.043-.49.043l-.058-.025v-.018c0-.04.065-.073.195-.097zm4.597.328h.065c.053.02.08.064.08.133v.018l-.023.08.065.133h-.064c-.068-.081-.13-.122-.188-.122l-.086-.072v-.019l.151-.151z"/><path fill="url(#paint1_linear)" d="M36.745 5.103h.022c.144 0 .305.115.483.346.255.198.598.543 1.03 1.037.063.012.202.145.418.4l.159.382-.087.327.065.194-.029.328c.039 0 .084.178.137.533v.613c0 .073-.029.12-.086.14h-.022c-.077 0-.346-.187-.807-.559l-.792-.63c-.049 0-.152-.059-.31-.176-.005.097-.183.236-.534.418l-.338.158a.876.876 0 0 1-.469.273 1.01 1.01 0 0 0-.144.321h-.029c-.139-.141-.237-.212-.295-.212-.23 0-.346.07-.346.212 0 .118-.036.176-.108.176h-.022c-.033 0-.05-.028-.05-.085h-.202c-.158 0-.252-.157-.28-.473l-.253-.151h-.108c-.077 0-.13.024-.159.072l.137.08-.021.418v.036l.064 1.267-.021.31.021.188-.021.024v.018l.065.594-.022.115c.01.599.053.898.13.898.024 0 .055-.045.093-.133L34 12.537v-.018l.065-.612-.05-.17.021-.206-.022-.116.05-.272-.028-.152c.038-.218.084-.327.137-.327h.022c.024 0 .052.088.086.266a.26.26 0 0 0 .159.061l.086-.018v-.043l-.05-.109c.038-.077.07-.115.093-.115l-.021-.103v-.073l.266-.14-.086-.108v-.037c.019-.093.048-.143.086-.151.072.024.108.095.108.212l-.064.085v.194c-.03.052-.065.079-.109.079v.042l.137.043.108-.061h.015l.108.073h.058v-.037l-.072-.157c.004-.304.093-.455.266-.455.014-.117.039-.176.072-.176h.015v.06l.043.225-.058.194.087.346-.03.327c.035.101.056.362.066.782.057.069.11.103.158.103l.627.012.152-.012.021.012.173-.012c1.484 0 2.227.043 2.227.128l.043.309-.022.17.022.212-.022.267.022.503-.022.764.022.31c-.02.06-.04.09-.065.09l-.576-.649-.022-.018h-.022l-.209.267h-.021l-.418-.018-.663.018h-1.312c-.052 0-.084.115-.093.346 0 .65-.022 1.374-.065 2.17v.207l.425.958.18.455c0 .04.118.145.353.315v.036l-.021.018h-.137c-.058 0-.13-.044-.216-.133-.082 0-.202-.058-.36-.176a.44.44 0 0 1-.354-.151c-.043 0-.14-.059-.288-.176-.106-.024-.29-.111-.555-.26h-.072c0 .096-.094.177-.281.242l-.022-.012v-.025l.022-.206h-.05l-.058.037h-.166c-.082 0-.146-.039-.194-.116v-.042l.064-.079h-.043c-.12.016-.322.121-.605.315.029.04.149.071.36.091 0 .037.06.063.18.08l.173-.043.166.14v.054l-.1.036-.174-.115-.28.079h-.051l-.116-.097-.13.06h-.086c-.057 0-.086-.052-.086-.157h-.108a.565.565 0 0 0-.21.157c.227.117.375.176.447.176l.224-.079.202.091.41.085.317.055c.087-.053.221-.08.404-.08l.065.152-.18.043h-.108l-.18-.043-.195.055-.21-.012-.302.012c-.072-.036-.108-.085-.108-.146h-.08c-.114.098-.215.146-.302.146l-.086-.055v-.17l-.188-.054-.172.037-.137-.116c-.072 0-.24.083-.505.249h-.072l-.036-.037v-.096c.159-.405.26-.88.303-1.425l.021-.34-.043-2.899v-1.685l-.022-.17.022-.133v-.31l-.022-.558.022-.576v-.23c0-.368-.082-.552-.245-.552-.48-.214-.785-.362-.915-.443-.303-.072-.454-.167-.454-.285-.255-.028-.382-.06-.382-.097v-.018a90.757 90.757 0 0 1 3.733-2.11c.413-.259 1.242-.734 2.486-1.425.201-.125.326-.188.374-.188zm-.403-.054l.022.066v.024h-.022l-.036-.066v-.024h.036zm-.202.709h.087l.079-.067v-.024h-.08l-.086.091zm-1.347.279l.029.067-.08.048h-.057v-.048l.108-.067zm.49.042v.073l.079.067.058-.049v-.018l-.08-.073h-.057zm-2.09.43h.029l-.058.05h-.029l.058-.05zm.137.577v.042c0 .049.074.08.223.091l.23-.109c-.028-.069-.064-.107-.107-.115h-.23l-.116.09zm.562.346l.094.248-.202.206v.14c0 .056.036.117.108.182.22-.025.331-.055.331-.091v-.14c-.105-.052-.158-.129-.158-.23l.08-.267-.109-.09h-.05l-.094.042zm.44.206c-.087.036-.13.097-.13.182v.018l.043.048h.166l.079-.066c0-.093-.053-.154-.159-.182zm.187.248v.122l.058.066.086-.066V7.91l-.086-.073-.058.048zm-.404.48c0 .024.063.054.188.09l.079-.018v-.024l-.137-.115h-.043l-.087.066zm-.67 3.874v.018c.168.194.385.378.649.552 0 .04.132.162.396.364h.058v-.024c-.13-.09-.195-.172-.195-.249l-.26-.158v-.188c.111-.088.207-.133.289-.133h.08l.172.133h.029a.395.395 0 0 0 .367-.224h.08c.134.004.202.018.202.043l.237-.067c.452.044.913.067 1.384.067l.029-.025h.028c.332 0 .558.093.678.28l.108.024v-.049c0-.073-.103-.194-.31-.364l-.533-.024-1.362.042-.908-.042-.144.024-.245-.024-.829.024zm-2.45 6.343c.183.02.274.05.274.09l-.432.116h-.03c-.095 0-.148-.024-.158-.073v-.018c0-.044.116-.083.346-.115z"/><path fill="url(#paint2_linear)" d="M44.038 5h4.943c.312 0 .469.044.469.133l.014.08-.014.94.064 2.11-.144.078-.893-.46c0-.057-.154-.126-.461-.207h-.267l-.245-.018-.187.018-.152-.018a4.901 4.901 0 0 1-.893.115 3.185 3.185 0 0 1-.822-.212c-.081 0-.146.083-.194.249v.018c.024.048.079.072.165.072h.08a.313.313 0 0 1 .165-.048l.188.048.08-.018v.043l-.217.17h-.151c0 .032-.097.145-.289.34h-.122c-.144-.106-.216-.177-.216-.213L44.6 8.17c-.096.09-.144.158-.144.207v.054c.014.04.062.06.144.06h.022l.194-.06c.144.02.216.047.216.079v.055a.352.352 0 0 1-.288.133c0 .024-.074.105-.223.242v.043l-.015 1.08.015.096-.015.146.015.194-.015.06.015.377-.015.551.015 1.213v1.364c0 .11.3.439.9.989.101.125.2.188.296.188.355-.198.579-.342.67-.43l.151-.14c-.13-.271-.194-.44-.194-.51l.021-.024h.072l.346-.012.116.036.201-.024.281.024c.14-.064.238-.097.296-.097v-.036h-.562l-.461.018c-.13 0-.274-.089-.433-.267-.547-.404-.821-.675-.821-.812 0-.101.322-.166.965-.194l1.456.024.512-.024.216.024.238-.024.079.024.944-.042.44.018c.033.028.072.176.115.442l.021.019-.093.303v.43l.021.722-.021.8v.704l-.03.533c.078.461.207.776.39.946.149.025.23.233.245.625-.043.315-.084.473-.123.473l-.216.024h-1.643l-.511-.024-.022.024h-.029l-.144-.024h-.05l-.26.042c-.149 0-.4-.184-.756-.551-.15-.296-.262-.443-.339-.443-.067 0-.221.109-.461.327l-.656.473c-.255.065-.384.116-.39.152 0 .056-.047.1-.143.133l-.433-.34c-.48-.476-.754-.737-.821-.782-.245-.157-.716-.6-1.412-1.328-.39-.323-.622-.555-.7-.697-.485-.351-.727-.606-.727-.764l-.05-.17v-.903l-.022-.576.021-.055-.021-.588v-.625l.021-.873-.021-.345.021-2.517v-.46l-.021-.073c.024-.126.314-.417.872-.874l1.26-1.152.822-.764.094-.018zm2.284 1.195l-.706-.019-.072.019v.018c0 .02.058.046.173.079l.36-.037.245.018.115-.018.13.037.62-.061h.1v-.018c0-.024-.047-.037-.143-.037v-.024l-.173.024-.404-.024-.245.043zm-1.506.32h.072c.034.001.06-.035.08-.108h-.051c-.067.024-.1.06-.1.109zm-.194.134v.019h.028l.05-.037v-.036l-.078.054zm.994.176l.022.073h.13c.023 0 .062-.044.115-.133l-.03-.019h-.165l-.072.08zm2.81.03l-.021.098.021.133-.072.133a.272.272 0 0 0 .144.128l.072-.03h.08l.065.054c0 .065-.022.103-.065.115l-.152-.036-.021.109.144.079.094-.018c.177.048.266.141.266.278 0 .073.034.12.101.14h.022v-.036c-.144-.384-.274-.64-.39-.764-.086-.219-.165-.346-.237-.382h-.05zm-3.459.322v.06c.02.053.092.08.217.08a.981.981 0 0 1 .317-.08c-.058-.153-.156-.23-.296-.23h-.05v-.012c-.125.044-.188.105-.188.182zm-.778-.091c0 .024-.146.125-.44.303l-.093.17.194-.055.166.019v-.019l.022-.018-.022-.018v-.133c.068-.045.101-.101.101-.17.063 0 .094-.02.094-.06v-.02h-.022zm.022.212v.018l.173.055c.125-.012.187-.063.187-.152a.196.196 0 0 0-.115-.115h-.022c-.149 0-.223.065-.223.194zm3.906-.151l-.03.109h.073l.021-.018h.03c-.035-.057-.066-.087-.094-.091zm-2.573.151v.018l.094.091h.05c0-.04-.048-.076-.144-.109zm-1.405.51c0 .06.072.09.216.09h.05a.413.413 0 0 1 .217-.048v-.024c-.096-.166-.202-.249-.318-.249-.11.085-.165.162-.165.23zm-.728-.037h.029c.024 0 .072-.044.144-.133h-.029c-.096.032-.144.077-.144.133zm-.288.267c.091 0 .146-.053.166-.158h-.022c-.096.029-.144.081-.144.158zm-.267 1.383v.533l-.022.376.044.649.029.018h.043c.033-.056.067-.303.1-.74l-.028-.23v-.134c.053-.12.086-.355.1-.703l-.05-.17h.03l-.03-.018v-.018l.05-.23c-.066-.203-.124-.304-.172-.304-.063 0-.094.324-.094.97zm.022 1.758v.31h.029c.028 0 .043-.04.043-.116h.021l-.043-.194h-.05zm2.788 2.359l.411.4.094.17c-.091.15-.137.25-.137.303 0 .045.038.107.115.188v.042h-.05c-.087 0-.19-.21-.31-.63-.063 0-.103-.158-.123-.473zm1.19.91h.021c.087 0 .144-.027.173-.08v-.018l-.05-.036h-.08c-.038 0-.06.044-.065.133z"/><path fill="url(#paint3_linear)" d="M9.327 18.884l.029.018-.03.097v.036c.212.21.633.566 1.262 1.067 0 .04.267.271.8.692.533.444.83.713.893.806.077 0 .279.172.606.515.038 0 .377.257 1.016.77.168.162.252.273.252.334v.018l-.05.037c-.049-.029-.397-.067-1.046-.116 0-.024-.057-.038-.172-.042h-.282c-.413.356-.78.647-1.102.873l-.822.691c-.21.227-.316.356-.316.389v.018c.052 0 .079.014.079.042l-.05.14.071.097c.125-.037.188-.095.188-.176h.079l.39.194c.066.02.1.067.1.14-.02.048-.053.072-.1.072 0 .069.071.103.215.103h.05l.267-.042c.082.15.188.224.317.224.26.202.5.32.721.352.01.036.123.097.339.182l.093.097v.036l-.065.06c.034.061.065.096.094.104h.072a.257.257 0 0 0 .18-.085h.022c.087 0 .214.073.382.218h.029v.037l-.433.145-.201-.121-.094.018-.151-.042h-.044v.024l.065.133c-.029 0-.05.067-.065.2l-.389.116-.021.018v.024c.067.105.146.158.237.158.116-.017.337-.101.663-.255a2.23 2.23 0 0 0 .62-.297l.295-.037c.097 0 .145.13.145.389l-.072 3.632c0 .17.064.418.194.746 0 .089.13.242.39.46l.41.407v.06a.406.406 0 0 1-.194.061c-.13 0-.445-.125-.944-.376l-.073-.018h-.05l-.122.018c0-.077-.169-.188-.505-.333-.375-.21-.634-.33-.778-.358-.058-.105-.137-.158-.238-.158h-.252l-.505-.018-.648.018h-.922l-.75-.018-.08.018-.266-.018-1.607.018-.021.018h-.03l-.093-.018h-.094c-.144 0-.285.027-.425.079l-.201-.018-1.089.83c-.413.393-.689.589-.828.589-.096-.029-.144-.075-.144-.14l.05-.097-.029-.157c.212-.178.317-.389.317-.631.034 0 .05-.067.05-.2h.015l-.014-.928v-5.36l.014-2.147c.02-.048.21-.162.57-.34.667-.456 1.061-.685 1.181-.685h.03l.078.061-.028.14v.472l-.022.152.022.158v.078l.043.831-.015.316.015.139-.015.315.015.316-.015.097.044.594h.05v-.043l.065-.236v-.194l.194-1.419c.145-.044.217-.158.217-.34v-.06c0-.049-.039-.107-.116-.176v-.06c.096-.187.144-.356.144-.51v-.06c-.086 0-.13-.047-.13-.14v-.055c.054-.04.111-.145.174-.315.048-.04.34-.06.879-.06.178 0 .266.072.266.218v.097l-.072.49.022.492-.022.382c.02.105.05.158.094.158.072 0 .404-.205.994-.613l.332-.224v-.018a.715.715 0 0 1-.166-.237c-.072-.004-.223-.127-.454-.37-.029 0-.11-.058-.245-.176-.067-.016-.211-.095-.432-.236v-.018c.077-.263.156-.639.238-1.128l.165-.649-.072-.024c-2.176 1.002-3.502 1.588-3.977 1.758l-1.838.061c-.096-.012-.144-.032-.144-.06.135-.114.757-.443 1.866-.99.644-.363 2.001-1.078 4.072-2.146.13-.117.26-.175.389-.175zm1.556-.11h.03v.049l-.03.024h-.028l-.03-.024.058-.049zm1.442 2.93v.048l.05.048.094-.073v-.024l-.065-.048h-.03l-.05.048zm-1.305 1.121c-.206 0-.31.024-.31.073.01.032.058.062.144.09.24-.007.36-.03.36-.066v-.024l-.086-.073h-.108zm.526.26v.098l.116.163-.03.025v.17l.138.018h.029l.028-.091c-.081-.303-.137-.455-.165-.455h-.03l-.086.073zm-.807.546v.073c.043.065.091.097.144.097.15-.012.224-.036.224-.072v-.025c0-.097-.048-.145-.144-.145l-.224.072zm-.41 0v.049h.021l.058-.049h-.08zm-2.17.552h-.634a1.31 1.31 0 0 0-.446.073c0 .089.158.287.475.594 0 .105.101.176.303.212h.021c.221-.064.332-.135.332-.212a2.11 2.11 0 0 1 .584-.14c.067.126.132.189.194.189l.173-.024.137.048.166-.145H9.6l.562.145h.05v-.048a9.12 9.12 0 0 0-1.117-.668c-.005-.032-.05-.062-.137-.09l-.324.024-.166-.024-.31.066zm-1.888.503v.14l.05.049.03-.122-.03-.115-.05.048zm1.607.067l.03.024h.028l.029-.024h.029l.137.024v.049H8.1l-.078-.024-.166.097-.115-.073c0-.036.045-.06.136-.073zm-1.578.218l-.029.116.05.048v-.164h-.02zm4.245.067c.096.012.19.069.28.17-.143 0-.237-.04-.28-.121v-.049zm-2.638.122l-.029.024v.072l.087.067h.137l.057-.042v-.049c0-.04-.084-.064-.252-.072zm3.358.285v.024h-.021l-.087-.073v-.024l.108.073zm2.227-.073h.029l.057.048v.049h-.144v-.049l.058-.048zm-5.224.097l-.058.072.086.261c-.052 0-.098.461-.137 1.383l.05.212-.05 1.007.022.473-.05.83c.033.097.108.146.223.146h.973l.166.024.028-.024.476.024h.548c.187 0 .28-.064.28-.194v-.88l-.021-.26.022-.31v-.927c0-.182-.13-.317-.39-.406l-1.31-.716a2.116 2.116 0 0 0-.52-.358c0-.068-.113-.187-.338-.357zm6.002 5.27h.195l.028.066c0 .048-.019.073-.057.073h-.137l-.086-.073v-.018l.057-.049zm-1.283.375l-.028.024v.025l.028.024h.03l.028-.024v-.025l-.029-.024h-.029zm1.254.049l.058.048h.029l-.058-.048h-.029zm-.944.17l.058.048h.058l.05-.049-.05-.048h-.058l-.058.049zm-5.166.187h.028l.05.049v.024l-.05.049h-.057l-.058-.049.087-.073zm6.362.698v.024l.08.067.086-.067v-.024l-.057-.049h-.058l-.05.049zm1.132.188h.202c.096 0 .197.062.302.188v.072c-.447-.064-.67-.119-.67-.163v-.025c.02-.048.075-.072.166-.072z"/><path fill="url(#paint4_linear)" d="M22.52 19.15c.087 0 .356.156.808.467.413.287.747.463 1.002.528.403.267.754.454 1.052.564l1.217.715c.303.255.553.404.75.449.14.174.343.305.612.394.063.085.118.229.166.43-.038.102-.067.296-.086.583l.029.394-.05.267.02.018v.018l-.02.055.02.564v.752l-.02.34.02.314v.437l-.079.788.03.522v.812l.028.073-.029.073v.248l.03.334c0 .141-.114.305-.34.491-.22.158-.422.271-.605.34-.005.024-.173.123-.504.297-.245.206-.632.457-1.16.752 0 .028-.205.165-.613.412l-.44.285c0 .04-.25.196-.749.467-.264.19-.497.321-.699.394 0 .06-.055.117-.166.17-.091 0-.247-.087-.468-.26a2.928 2.928 0 0 1-.584-.456c-.73-.464-1.57-1.09-2.522-1.873l-.389-.322-.944-.679c-.13-.02-.195-.056-.195-.109l.058-.321-.029-.091c.015-.178.034-.267.058-.267l-.058-.449.03-1.54.078-.673-.028-1.164.115-.267v-1.668l-.029-.17c0-.088.574-.527 1.722-1.315 0-.029.332-.28.995-.752 1.23-.914 1.868-1.37 1.917-1.37h.05zm-.273 2.238v.018h.058l.05-.042v-.055l-.108.079zm.497.503v.037l.087.018v-.055h-.087zm-1.218.206v.06l.44.146h.058l.086.019v-.018l.08-.146c-.198-.142-.344-.212-.44-.212a.335.335 0 0 0-.224.151zm-.583.243h.029l.137-.018.194.018.029-.018-.029-.128v-.036c0-.028.029-.043.087-.043l.021-.054-.021-.018h-.03c-.278.121-.417.22-.417.297zm1.859-.073l.029.018h.029l.194-.018v-.036l-.029-.097h-.086c-.043.008-.089.052-.137.133zm-.418-.073a.303.303 0 0 0-.108.17l.029.073.389-.097v-.055a.887.887 0 0 1-.31-.09zm-.915.43v.019c.02.036.074.055.166.055h.115l.194-.055c.039 0 .176.075.411.224h.087l.108-.17a.8.8 0 0 1-.274-.224l-.137.018c-.038 0-.058-.018-.058-.054l-.086.018-.303-.054h-.029c-.13.048-.194.123-.194.224zm1.607.207a1.945 1.945 0 0 1-.411-.09c0 .21-.055.314-.166.314h-.028c-.039 0-.058-.018-.058-.054l-.029.018h-.029l-.303-.073c-.168.069-.252.138-.252.206.039.057.077.087.116.091h.136l.282-.054.165.09a.282.282 0 0 1-.252.134h-.086c0 .045-.082.125-.245.243v.224l-.03.079.03.073v.115l.028.242-.028.073.136 3.026-.057.243.057.582-.057.206c.014.113.44.47 1.275 1.073h.087a4.24 4.24 0 0 0 1.023-.679l.144-.188-.029-2.983v-2.274c0-.06-.11-.16-.331-.297 0-.025-.13-.107-.39-.249-.067-.085-.206-.166-.417-.243-.106 0-.2.051-.281.152zm-2.796-.036v.018h.05a.254.254 0 0 0 .144-.115h-.057c-.048.008-.094.04-.137.097zm-.31.958l.029.054-.029.207v.285l.029.412-.029.17.058.69.029.019h.028l.08-.17-.03-.018.058-.297-.028-.06.028-.092-.028-.34.115-.448-.029-.527.029-.17c-.082-.174-.137-.261-.166-.261h-.029c-.062 0-.1.182-.115.546zm.058 2.007v.242l.057.043.03-.097v-.091l-.03-.134-.057.037z"/><path fill="url(#paint5_linear)" d="M33.935 19.15c.087 0 .356.156.807.467.413.287.747.463 1.002.528.403.267.754.454 1.052.564l1.218.715c.302.255.552.404.75.449.138.174.343.305.612.394.062.085.117.229.165.43-.038.102-.067.296-.086.583l.029.394-.05.267.02.018v.018l-.02.055.02.564v.752l-.02.34.02.314v.437l-.078.788.029.522v.812l.028.073-.029.073v.248l.03.334c0 .141-.114.305-.34.491-.22.158-.422.271-.605.34-.005.024-.173.123-.504.297-.245.206-.632.457-1.16.752 0 .028-.204.165-.613.412l-.44.285c0 .04-.25.196-.749.467-.264.19-.497.321-.699.394 0 .06-.055.117-.166.17-.09 0-.247-.087-.468-.26a2.928 2.928 0 0 1-.584-.456c-.73-.464-1.57-1.09-2.522-1.873l-.389-.322-.944-.679c-.13-.02-.194-.056-.194-.109l.057-.321-.029-.091c.015-.178.034-.267.058-.267l-.058-.449.03-1.54.079-.673-.03-1.164.116-.267v-1.668l-.029-.17c0-.088.574-.527 1.723-1.315 0-.029.331-.28.994-.752 1.23-.914 1.869-1.37 1.917-1.37h.05zm-.274 2.238v.018h.058l.05-.042v-.055l-.108.079zm.497.503v.037l.087.018v-.055h-.087zm-1.217.206v.06l.44.146h.057l.086.019v-.018l.08-.146c-.197-.142-.344-.212-.44-.212a.335.335 0 0 0-.223.151zm-.584.243h.029l.137-.018.194.018.03-.018-.03-.128v-.036c0-.028.03-.043.087-.043l.021-.054-.021-.018h-.029c-.279.121-.418.22-.418.297zm1.86-.073l.028.018h.029l.194-.018v-.036l-.028-.097h-.087c-.043.008-.089.052-.137.133zm-.419-.073a.304.304 0 0 0-.108.17l.029.073.39-.097v-.055a.887.887 0 0 1-.31-.09zm-.915.43v.019c.02.036.075.055.166.055h.115l.195-.055c.038 0 .175.075.41.224h.087l.108-.17a.8.8 0 0 1-.274-.224l-.137.018c-.038 0-.057-.018-.057-.054l-.087.018-.303-.054h-.028c-.13.048-.195.123-.195.224zm1.607.207a1.943 1.943 0 0 1-.41-.09c0 .21-.056.314-.166.314h-.03c-.038 0-.057-.018-.057-.054l-.029.018h-.029l-.302-.073c-.168.069-.252.138-.252.206.038.057.076.087.115.091h.137l.28-.054.166.09a.282.282 0 0 1-.252.134h-.086c0 .045-.082.125-.245.243v.224l-.029.079.029.073v.115l.029.242-.03.073.138 3.026-.058.243.058.582-.058.206c.014.113.44.47 1.276 1.073h.086c.418-.206.76-.432 1.023-.679l.144-.188-.028-2.983v-2.274c0-.06-.11-.16-.332-.297 0-.025-.13-.107-.389-.249-.067-.085-.207-.166-.418-.243-.106 0-.2.051-.281.152zm-2.796-.036v.018h.05a.254.254 0 0 0 .145-.115h-.058c-.048.008-.094.04-.137.097zm-.31.958l.03.054-.03.207v.285l.03.412-.03.17.058.69.029.019h.029l.079-.17-.029-.018.058-.297-.03-.06.03-.092-.03-.34.116-.448-.029-.527.03-.17c-.083-.174-.138-.261-.167-.261H31.5c-.063 0-.101.182-.116.546zm.058 2.007v.242l.058.043.028-.097v-.091l-.028-.134-.058.037z"/><path fill="url(#paint6_linear)" d="M46.574 19.284c.553.32 1.048.645 1.485.976.994.671 1.564 1.067 1.708 1.188.523.283.785.476.785.576l-1.03.734c0 .024-.039.037-.116.037a.383.383 0 0 1-.36.212c-.245.335-.41.507-.497.515h-.022c-.35-.13-.768-.34-1.254-.63l-.72-.522c0 .053-.024.079-.072.079h-.022l-.151-.036v.018l-.03.073.03.078c-.005.04-.058.08-.159.116-.144-.009-.228-.035-.252-.08h-.022v-.114l.05-.037.087.037c.092-.029.137-.073.137-.134l-.115-.073h-.022l-.403.134v.133c0 .045.081.077.245.097l.021.073c-.163.036-.245.095-.245.176l.044.133-.137.097c-.072 0-.108-.014-.108-.042-.063 0-.094.052-.094.158-.12.032-.18.056-.18.072v.097c0 .142.197.295.59.461.034.057.258.16.67.31.183.113.303.214.361.303.178 0 .627.212 1.348.636.72.291 1.08.502 1.08.63v.061h.138c.13 0 .578.193 1.347.577.226.04.339.186.339.436l.36 3.166.086 1.073v.018c0 .069-.021.107-.064.115h-.072a2.555 2.555 0 0 1-.584-.188c-.101 0-.334-.083-.7-.248h-.129a2.91 2.91 0 0 0-.403.479 5.272 5.272 0 0 1-.743.418c-.067.077-.254.192-.562.346l-1.24-.037-.136.018-.288-.018-.094.018-.086-.018c-1.355.016-2.306.043-2.854.08l-.432-.043h-.108c-.068 0-.159.058-.274.175l-.288.134c-.154 0-.387.083-.7.248l-.403.134c-.192 0-.387.097-.584.291a.327.327 0 0 0-.201-.079l-.022.018h-.022c-.072-.024-.11-.05-.115-.078 0-.081.233-.31.699-.686 0-.036.18-.196.54-.479l2.94-2.589c.053-.077.12-.115.202-.115h.022l.029.71v.187l.021.291-.05.364c0 .09.158.134.475.134l.116-.019 2.111.037h.339c.072 0 .115-.027.13-.08l-.34-2.988c-.08-.114-.657-.409-1.729-.886a116.551 116.551 0 0 0-3.459-1.8 26.658 26.658 0 0 0-1.686-.862l-.021-.097c.168-.214.49-.483.965-.806.024-.049.495-.439 1.413-1.17.081-.098.996-.825 2.745-2.184.418-.36.666-.54.742-.54zm-3.459 4.123h.065c.058 0 .17-.065.34-.194l.064-.073c.158 0 .264-.076.317-.23.043 0 .214-.115.512-.346l.137-.018.043.133-.022.249h.022l.05.036.022-.018h.065c0 .033.03.053.093.06l-.021.116c0 .137.029.206.086.206.077-.02.116-.058.116-.115l-.116-.249c.063-.02.123-.097.18-.23.164 0 .245-.095.245-.285-.053-.089-.12-.133-.201-.133-.005.125-.065.188-.18.188l-.022.024v.188c-.12.1-.18.165-.18.194h-.022l-.043-.043a.247.247 0 0 0 .065-.17v-.018l-.044-.133a.458.458 0 0 0 .159-.212c.1 0 .197-.09.288-.267h.094l.245.152c.149-.053.223-.112.223-.176l-.021-.018v-.019l.072-.17-.18-.042v-.036a.6.6 0 0 1 .31-.194l.223.06a.478.478 0 0 1 .209-.078l.021.018v-.073c0-.117-.03-.176-.093-.176v-.018c0-.028.038-.047.115-.055l.022.018.065.019v.018l.072-.018v-.116l.043-.23-.022-.018h-.021l-.793.576c-.043 0-.401.255-1.074.764l-.9.612-.628.485v.055zm3.034-2.092h.065l.022.018h.021l-.043.116.022.096-.108.019v-.018l-.072.018c-.087-.012-.13-.03-.13-.055v-.036c.057-.105.132-.158.223-.158zm-.252.503c.058.037.11.055.159.055h.021l.05-.036-.093-.08h-.065l-.072.061zm.296.188c.057.142.117.213.18.213.038-.009.074-.04.108-.097-.15-.053-.224-.104-.224-.152h-.021l-.043.036zm3.192.152l.086.042c.087-.02.147-.052.18-.097v-.036l-.13-.043c-.09.02-.136.065-.136.134zm-.606-.036c.044.165.08.248.108.248l.296-.23v-.018c-.014-.04-.082-.067-.202-.08-.11 0-.178.027-.202.08zm.988-.08v.025l.064.055h.072v-.019l-.072-.06h-.064zm-4.454.674v.042h-.021l.021.018v.019l-.021.018v.018l.043.079c.091-.029.137-.055.137-.079v-.036c-.024-.053-.077-.08-.159-.08zm-1.009.176v.036l.065.018.094-.018v-.018l-.05-.043-.108.025zm.808.054v.018c0 .065.03.104.093.116l.087-.019-.022-.078.022-.055-.022-.018h-.115l-.043.036zm-.563 6.792c-.12.295-.18.487-.18.576h.022c.154-.146.23-.3.23-.461v-.115h-.072zm-.18.71l-.043.054v.176c.029 0 .082-.051.159-.152-.015-.053-.053-.079-.116-.079z"/><path fill="url(#paint7_linear)" d="M62.723 19.466l.187.018.498-.018h1.181c.255 0 .382.068.382.206l.029.072-.029.516v.242l-.029.019.03.018v1.85c0 .161-.027.242-.08.242-.144-.113-.375-.206-.692-.279-.418-.218-.728-.336-.93-.352h-.547l-1.074.018-.302-.018-.224.037c-.144-.04-.216-.083-.216-.128h-.029l-.057.037.057.054v.018l-.057.207v.109l.028.073-.028.018.028.685v.406l-.028.206.057.188-.029.255.03.794-.03.08.03.108v.146a.78.78 0 0 1-.08.315v4.312l.022.351-.022.08.022.127-.022.442v.073c0 .06.072.13.216.206 0 .065.156.218.468.46.404.397.834.793 1.29 1.19l.03.054-.08.036-.634-.036-1.045.036-.245-.018h-.029l-.195.018-.194-.018-.88.018-.186-.018-.498.018h-1.181l-.166.019-.137-.019h-.08l-.115.019-.187-.019h-.605l-.108.019-.116-.019h-.079l-.41.019-.03-.055.685-.63c.384-.453.577-.83.577-1.129v-.054l-.03-.243.03-.072-.051-.813.022-.06-.022-.498v-1.94l-.029-.376.029-.37v-1.831l.022-.352-.022-.018.022-.316v-.533l-.022-.461.022-.485v-.552l-.022-.188a.298.298 0 0 0 .166-.09v-.037l-.166-.018-.223.127c-.092 0-.137-.012-.137-.037l-.03.019h-.468l-.108-.019c-.057.02-.321.039-.792.055a1.532 1.532 0 0 0-.44-.055l-.302.019-.253-.055.03-.09v-.019l-.195.036v.019c0 .02.055.044.165.072v.037c-.312.234-.52.351-.627.351l-.273.182-.058-.036.029-.164-.029-.145.029-.025h.05l.087.043h.079c.053-.016.118-.085.194-.206.145-.04.217-.103.217-.188.057-.158.132-.237.223-.237l.029.018h.029l.382-.109h.165l.03.018h.02l.138-.096v-.037c-.106-.053-.159-.113-.159-.182L54.53 21l.086-.037h.137l-.057.134h.028c.101.016.202.07.303.163.038 0 .094-.06.166-.181h.021l.144.018.217-.188h.028c.072.02.108.056.108.109h.087l.022-.11-.022-.108h-.115l-.137.018-.08-.073v-.018c0-.028.027-.043.08-.043l.166.019.302-.037.245.037a.99.99 0 0 1 .303-.037h.389l.137-.018v-.018l-.548-.018h-.36l-.166.018-.274-.037-.245.019h-.057v-.018l-.195.018h-.382l-.302.018c-.048 0-.341-.184-.88-.552l-.194-.097h-.05c.019.113.192.281.518.503l.137.2a.728.728 0 0 0-.166.298l.274.242v.055l-.137.054c0-.113-.117-.206-.353-.279l-.223.097-.166-.018h-.022v.091c-.028.223-.074.334-.136.334h-.03v-.019l.03-.17-.03-.163.03-.127-.058-.152.029-.073-.029-.26v-.091l.029-.298a.836.836 0 0 1-.195-.388c0-.198.056-.297.166-.297 5.183-.012 8.39-.03 9.62-.054zm1.124.83v.018h.05l.087-.054v-.018h-.058l-.079.054zm-5.772.316h-.274v.018c0 .044.166.077.497.097l.109.055h.079c.134-.09.245-.134.331-.134h.058a.39.39 0 0 0 .216.079c.034 0 .063-.032.087-.097l-.087-.037-.245.019-.245-.018-.36.018-.029-.018-.137.018zm1.24.036l.136.055.743-.073v-.018h-.332l-.44-.018c-.072.02-.107.038-.107.054zm1.62-.018v.018h.051v.018c.15-.012.224-.03.224-.054h-.087l-.187.018zm-5.742.018c.091.02.137.053.137.097l-.116.146h-.05c0-.029-.055-.059-.166-.091v-.073c0-.028.065-.055.195-.079zm-.742.036h.028l.05.043v.018c-.09.065-.136.125-.136.182h-.058l-.05-.182c.019-.04.074-.06.166-.06zm.353.098c.11.008.165.026.165.054l-.029.018h-.079l-.057-.036v-.037zm3.466.297v.036l.05.036a.72.72 0 0 0 .332-.242v-.018l-.108-.073c-.058.02-.15.107-.274.26zm.41-.225v.037c.14 0 .267.11.382.333h.058c.01-.097.029-.145.058-.145-.01-.045-.12-.132-.332-.261h-.108l-.058.036zm-2.442.055l.05.036a.23.23 0 0 1-.108.134l.029.018v.018c0 .085-.11.127-.332.127v.073l.332.133.029.091h.136l.022-.072-.08-.061v-.11l.332-.127c0-.048.017-.072.05-.072h.058a.42.42 0 0 0 .195.072v-.018c.038-.064.146-.097.324-.097 0-.024-.062-.036-.187-.036L57.059 21l-.166-.073c-.149.085-.25.127-.302.127l-.245-.072v-.037h.05v-.018l-.158-.018zm3.185.145l.136.025.109-.08-.03-.017h-.02c-.102 0-.167.024-.195.072zm-4.151.28v.096l.058.037c.254-.033.382-.071.382-.115l-.217-.146h-.028l-.195.127zm3.769-.092c-.096.065-.144.12-.144.164v.297l.057.134h.058c.033 0 .089-.075.166-.225-.03-.238-.075-.362-.137-.37zm4.72.055v.188l-.05.054v.019c0 .064.045.113.136.145l.166-.036.108.018v.073l-.08.06-.223-.036v.018l-.029.055c.116.085.272.127.469.127l.137.152-.03.109a.263.263 0 0 0 .138.109h.029l.057-.036c-.216-.42-.372-.637-.468-.65 0-.112-.091-.248-.274-.405h-.029l-.057.036zm-7.142.224l.195.128c.163-.11.264-.164.303-.164l-.166-.206h-.058c-.182.024-.273.105-.273.242zm.908 0l.03.018c.215-.064.323-.109.323-.133v-.036c-.235 0-.353.05-.353.151zm2.746-.054h.029l.057-.037h-.029l-.057.037zm-.332.018v.073h.087v-.019l-.087-.054zm3.466.018l-.028.091v.018h.079l.029-.018h.029c-.034-.057-.07-.087-.108-.091zm-8.711.018v.055l.057.036h.108l-.086-.09h-.08zm.497.018c0 .025-.03.037-.087.037v.036l.058.037h.137l.029-.073-.137-.037zm.41.073l.08.091.137-.018v-.055l-.108-.036h-.05l-.03.018h-.029zm4.915.11l-.022.017v.043c.015.036.07.055.166.055h.022v-.019a.293.293 0 0 0-.166-.097zm-1.535.26c0 .049-.02.073-.058.073l-.028.63.057 1.577c.063 0 .099-.099.108-.297l-.021-.115c.048-.093.1-.494.158-1.2l.058-.17c0-.203-.091-.369-.274-.498zm-.029 2.426v.018l.029.09h.029v-.145l-.058.037z"/><path stroke="#fff" stroke-width="6" d="M21.34 5.042l.215.019 1.067-.019.317.019.403-.019c.12 0 .207.037.26.11v.103l-.022.206.022.024-.022.188v1.643l.022.304-.022.303v.8c0 .574-.014.861-.043.861l.022.122-.022 2.383-.043.418v.8l.021.291-.021.073.021.54v.036l-.021.152.021.073-.021.515.021.194-.021.079.021.382v.206l.044.06.252-.017h2.299c.5 0 1.025-.083 1.578-.249.22 0 .667-.184 1.34-.552l.28-.121.023.06-.044.267.022.055-.087.418v.249c0 .226-.036.52-.108.88v.302l-.086.655v.328c-.034.493-.082.74-.144.74-.096-.09-.144-.146-.144-.17l.036-.08a6.646 6.646 0 0 0-.555-1.072l-.022-.019h-.043l-.058.158.015.018v.024c0 .061-.02.098-.058.11h-.043c-.058 0-.087-.063-.087-.188l-.043.036.022.018v.024l-.108.219.216.042.043-.042h.022l.036.042c0 .113-.02.196-.058.249l-.13-.037h-.043l-.022.055.152.043.065-.019v.018l-.044.037-.021-.018-.022.018h-.021c-.044-.024-.15-.043-.317-.055-.125-.117-.36-.176-.707-.176l-.576.025h-.26c-.067 0-.1-.04-.1-.122-.058 0-.087-.02-.087-.06l.022-.012v-.018l-.108-.043-.087.194.022.018-.065.043h-.058c-.077 0-.127-.027-.151-.08v-.042c.038-.064.115-.115.23-.151l.065-.23-.144-.098h-.043c-.12 0-.255.077-.404.23 0-.02-.028-.03-.086-.03l-.022-.024v-.018l.087-.115c0-.024-.053-.043-.159-.055v-.018l.072-.06h.108v-.019c.005-.25.09-.384.253-.4h.065l.108.079h.036c0-.073.079-.113.238-.121.038.113.103.17.194.17h.195l.122.024.108-.073-.021-.024v-.037l.144-.018h.05l.022.018h.021l-.021.018v.055l.043.079h.058c.043-.012.065-.05.065-.115l-.022-.019v-.018l.021-.018h.044l.238.079a.744.744 0 0 1 .36-.079h.108l.058-.06-.123-.043-.021.024h-.022l-.13-.024-.346.024h-.353l-.216.018-.187-.018-.584.018-.23-.042-.238.024L25 16.97l-.166.024-.187-.024-.094.024-.08-.024-1.022.042-.174-.018-.064.018-.296-.018h-.086l-.382.018-.21-.018-.136.097c-.115 0-.192.05-.23.152 0 .02-.073.04-.217.06l-.1.019c-.04.1-.111.151-.217.151-.154.113-.245.17-.274.17l-.13-.018c-.398.178-.598.311-.598.4-.01.113-.028.17-.057.17h-.346l-.216.018-.022-.055c.615-.638.922-1.243.922-1.813l-.021-.175.021-.049-.043-.788.022-.055-.022-.667v-4.148l.022-.497-.022-.018.022-.09v-.783l-.022-.461c.03-.069.044-.202.044-.4v-.691l.108-.11v-.018c0-.028-.022-.042-.065-.042l-.151.06-.087-.018v-.042l.043-.06-.043-.055-.187.036-.044-.055v-.054l.044-.06.144.017h.043l.065-.036h.043c.043 0 .065.032.065.097h.065l.209-.14v-.018l-.043-.151c.057 0 .086-.02.086-.06V6.74h-.108l-.043-.036.043-.043h.216c.087.049.13.114.13.195l-.173.285.021.024c.221-.097.351-.174.39-.23v-.019l-.03-.024v-.018l-.107.018h-.044v-.055l.087-.115c-.082-.036-.123-.08-.123-.133l.101-.037c-.043-.141-.098-.212-.165-.212-.039 0-.068.045-.087.133-.048.04-.12.061-.216.061l-.123-.079c0-.153.07-.23.21-.23.1 0 .15-.014.15-.043-.37 0-.554-.062-.554-.188-.365-.303-.577-.454-.634-.454.057.178.2.355.425.533 0 .049.02.1.057.152l-.122.291.043.127h-.043l-.115-.072h-.015c-.072.06-.137.09-.194.09-.159-.024-.238-.08-.238-.17v-.57l.022-.115c-.097-.17-.145-.317-.145-.442l.022-.11-.021-.115.086-.06 1.722-.037zm.02 1.201l.03.018.036.043.108-.018h.065l.079.054a.107.107 0 0 0 .086-.079l-.165-.036h-.13l-.108.018zm.195.31l.087.036c.067-.016.1-.035.1-.055v-.042l-.086-.019c-.062.025-.096.051-.1.08zm.57.036v.151l.021.134h.022l.05-.188v-.097l-.05-.037-.043.037zm-2.45.133h.021l.05.043v.09h-.05l-.021-.09v-.043zm2.471.194v.152c.034 0 .05-.018.05-.055l-.028-.097h-.022zm-1.362.358l.022.018v.024l.086-.06-.043-.037-.065.055zm-.547.194l.021.018v.018l-.302.134-.044-.037c0-.08.108-.125.325-.133zm-.54.188l.158.115-.137.134c0 .052-.015.078-.043.078l-.022-.018v-.06l.043-.061-.043-.17.022-.018h.021zm8.25 9.356l.022.019h.021c.03-.005.058-.035.087-.091l-.022-.019h-.043c-.034 0-.055.03-.065.091zm-4.266.019l.18.097h.166c.125.024.187.068.187.133l-.064.079-.145-.018v.036h-.021l.122.212-.166.055c-.177-.06-.276-.12-.295-.176l.1-.091c-.047-.117-.11-.176-.186-.176-.02 0-.049.053-.087.158l-.108.018h-.108c-.067 0-.108-.077-.123-.23.053-.053.152-.08.296-.08v.025l.252-.042zm-1.254.06l.044.037v.133h-.044c0-.04-.029-.091-.086-.152l.021-.018h.065zm.469.018h.043c.029.008.058.039.086.091a.252.252 0 0 1-.151.061l-.043-.079.065-.073zm2.068.055h.13l.064.06c0 .081-.108.126-.324.134h-.043c-.096-.053-.144-.105-.144-.158l.021-.018h.044l.079.018.173-.036zm3.005.079l-.022.097c.087.028.13.064.13.109h.021v-.018c-.038-.126-.074-.188-.108-.188h-.021zm-5.52.097h.021l.044.036-.065.055-.043-.037v-.018l.043-.036zm4.518.151v.061h.058c.077 0 .122-.02.137-.06v-.019c0-.028-.022-.042-.065-.042-.087.012-.13.032-.13.06zm-4.749 0h.022l.065.061-.043.03-.094-.054.05-.037zm1.124 0h.065l.022.019.022-.019h.021a.338.338 0 0 1 .151.152c0 .19-.079.285-.237.285v.152l-.022.024v.018l.022.018-.065.043h-.065c-.072 0-.12-.027-.144-.08v-.042c.082-.1.166-.151.252-.151l-.065-.206c.058 0 .087-.02.087-.061v-.042l-.044-.03h-.108v-.061l.108-.019zm1.896.019v.06h.108v-.018l-.044-.042h-.064zm-3.582.248h.022l.065.055v.018l-.044.042h-.021l-.058-.06v-.018l.036-.037zm.728.037c.087 0 .13.044.13.133v.024l-.065.049c-.106-.045-.168-.087-.188-.128v-.018c.015-.04.056-.06.123-.06zm1.722 0h.108c.063.02.094.064.094.133v.024l-.043.037h-.072l-.123-.097v-.061l.036-.036zm-2.897.097h.065c.072.076.18.14.325.188v.06l-.044.043c-.283 0-.425-.035-.425-.103l-.238.024v-.024l-.021-.08.043-.072.108.024a.28.28 0 0 0 .187-.06zm1.665.06c.038 0 .067.05.087.152v.018l-.044.036h-.086l-.022-.018-.122.043h-.022l-.043-.043c.081-.125.166-.188.252-.188zm2.385 0c.058.02.087.063.087.128v.042l-.044.036h-.043l-.08-.018-.129.043-.029-.061c.072-.113.152-.17.238-.17zm-.706.049h.043c.058.052.11.079.159.079l.036.06-.08.043-.115-.025-.166.025-.021-.025v-.018a.339.339 0 0 1 .144-.14zm-2.573.042h.044l.194.06.123-.023.065.06c-.082.029-.26.043-.534.043l-.036-.061.145-.079zm1.86 0h.036c.038.04.137.06.295.06l.022.019v.018c-.068.029-.23.043-.49.043l-.058-.025v-.018c0-.04.065-.073.195-.097zm4.597.328h.065c.053.02.08.064.08.133v.018l-.023.08.065.133h-.064c-.068-.081-.13-.122-.188-.122l-.086-.072v-.019l.151-.151zM36.745 5.103h.022c.144 0 .305.115.483.346.255.198.598.543 1.03 1.037.063.012.202.145.418.4l.159.382-.087.327.065.194-.029.328c.039 0 .084.178.137.533v.613c0 .073-.029.12-.086.14h-.022c-.077 0-.346-.187-.807-.559l-.792-.63c-.049 0-.152-.059-.31-.176-.005.097-.183.236-.534.418l-.338.158a.876.876 0 0 1-.469.273 1.01 1.01 0 0 0-.144.321h-.029c-.139-.141-.237-.212-.295-.212-.23 0-.346.07-.346.212 0 .118-.036.176-.108.176h-.022c-.033 0-.05-.028-.05-.085h-.202c-.158 0-.252-.157-.28-.473l-.253-.151h-.108c-.077 0-.13.024-.159.072l.137.08-.021.418v.036l.064 1.267-.021.31.021.188-.021.024v.018l.065.594-.022.115c.01.599.053.898.13.898.024 0 .055-.045.093-.133L34 12.537v-.018l.065-.612-.05-.17.021-.206-.022-.116.05-.272-.028-.152c.038-.218.084-.327.137-.327h.022c.024 0 .052.088.086.266a.26.26 0 0 0 .159.061l.086-.018v-.043l-.05-.109c.038-.077.07-.115.093-.115l-.021-.103v-.073l.266-.14-.086-.108v-.037c.019-.093.048-.143.086-.151.072.024.108.095.108.212l-.064.085v.194c-.03.052-.065.079-.109.079v.042l.137.043.108-.061h.015l.108.073h.058v-.037l-.072-.157c.004-.304.093-.455.266-.455.014-.117.039-.176.072-.176h.015v.06l.043.225-.058.194.087.346-.03.327c.035.101.056.362.066.782.057.069.11.103.158.103l.627.012.152-.012.021.012.173-.012c1.484 0 2.227.043 2.227.128l.043.309-.022.17.022.212-.022.267.022.503-.022.764.022.31c-.02.06-.04.09-.065.09l-.576-.649-.022-.018h-.022l-.209.267h-.021l-.418-.018-.663.018h-1.312c-.052 0-.084.115-.093.346 0 .65-.022 1.374-.065 2.17v.207l.425.958.18.455c0 .04.118.145.353.315v.036l-.021.018h-.137c-.058 0-.13-.044-.216-.133-.082 0-.202-.058-.36-.176a.44.44 0 0 1-.354-.151c-.043 0-.14-.059-.288-.176-.106-.024-.29-.111-.555-.26h-.072c0 .096-.094.177-.281.242l-.022-.012v-.025l.022-.206h-.05l-.058.037h-.166c-.082 0-.146-.039-.194-.116v-.042l.064-.079h-.043c-.12.016-.322.121-.605.315.029.04.149.071.36.091 0 .037.06.063.18.08l.173-.043.166.14v.054l-.1.036-.174-.115-.28.079h-.051l-.116-.097-.13.06h-.086c-.057 0-.086-.052-.086-.157h-.108a.565.565 0 0 0-.21.157c.227.117.375.176.447.176l.224-.079.202.091.41.085.317.055c.087-.053.221-.08.404-.08l.065.152-.18.043h-.108l-.18-.043-.195.055-.21-.012-.302.012c-.072-.036-.108-.085-.108-.146h-.08c-.114.098-.215.146-.302.146l-.086-.055v-.17l-.188-.054-.172.037-.137-.116c-.072 0-.24.083-.505.249h-.072l-.036-.037v-.096c.159-.405.26-.88.303-1.425l.021-.34-.043-2.899v-1.685l-.022-.17.022-.133v-.31l-.022-.558.022-.576v-.23c0-.368-.082-.552-.245-.552-.48-.214-.785-.362-.915-.443-.303-.072-.454-.167-.454-.285-.255-.028-.382-.06-.382-.097v-.018a90.757 90.757 0 0 1 3.733-2.11c.413-.259 1.242-.734 2.486-1.425.201-.125.326-.188.374-.188zm-.403-.054l.022.066v.024h-.022l-.036-.066v-.024h.036zm-.202.709h.087l.079-.067v-.024h-.08l-.086.091zm-1.347.279l.029.067-.08.048h-.057v-.048l.108-.067zm.49.042v.073l.079.067.058-.049v-.018l-.08-.073h-.057zm-2.09.43h.029l-.058.05h-.029l.058-.05zm.137.577v.042c0 .049.074.08.223.091l.23-.109c-.028-.069-.064-.107-.107-.115h-.23l-.116.09zm.562.346l.094.248-.202.206v.14c0 .056.036.117.108.182.22-.025.331-.055.331-.091v-.14c-.105-.052-.158-.129-.158-.23l.08-.267-.109-.09h-.05l-.094.042zm.44.206c-.087.036-.13.097-.13.182v.018l.043.048h.166l.079-.066c0-.093-.053-.154-.159-.182zm.187.248v.122l.058.066.086-.066V7.91l-.086-.073-.058.048zm-.404.48c0 .024.063.054.188.09l.079-.018v-.024l-.137-.115h-.043l-.087.066zm-.67 3.874v.018c.168.194.385.378.649.552 0 .04.132.162.396.364h.058v-.024c-.13-.09-.195-.172-.195-.249l-.26-.158v-.188c.111-.088.207-.133.289-.133h.08l.172.133h.029a.395.395 0 0 0 .367-.224h.08c.134.004.202.018.202.043l.237-.067c.452.044.913.067 1.384.067l.029-.025h.028c.332 0 .558.093.678.28l.108.024v-.049c0-.073-.103-.194-.31-.364l-.533-.024-1.362.042-.908-.042-.144.024-.245-.024-.829.024zm-2.45 6.343c.183.02.274.05.274.09l-.432.116h-.03c-.095 0-.148-.024-.158-.073v-.018c0-.044.116-.083.346-.115zM44.038 5h4.943c.312 0 .469.044.469.133l.014.08-.014.94.064 2.11-.144.078-.893-.46c0-.057-.154-.126-.461-.207h-.267l-.245-.018-.187.018-.152-.018a4.901 4.901 0 0 1-.893.115 3.185 3.185 0 0 1-.822-.212c-.081 0-.146.083-.194.249v.018c.024.048.079.072.165.072h.08a.313.313 0 0 1 .165-.048l.188.048.08-.018v.043l-.217.17h-.151c0 .032-.097.145-.289.34h-.122c-.144-.106-.216-.177-.216-.213L44.6 8.17c-.096.09-.144.158-.144.207v.054c.014.04.062.06.144.06h.022l.194-.06c.144.02.216.047.216.079v.055a.352.352 0 0 1-.288.133c0 .024-.074.105-.223.242v.043l-.015 1.08.015.096-.015.146.015.194-.015.06.015.377-.015.551.015 1.213v1.364c0 .11.3.439.9.989.101.125.2.188.296.188.355-.198.579-.342.67-.43l.151-.14c-.13-.271-.194-.44-.194-.51l.021-.024h.072l.346-.012.116.036.201-.024.281.024c.14-.064.238-.097.296-.097v-.036h-.562l-.461.018c-.13 0-.274-.089-.433-.267-.547-.404-.821-.675-.821-.812 0-.101.322-.166.965-.194l1.456.024.512-.024.216.024.238-.024.079.024.944-.042.44.018c.033.028.072.176.115.442l.021.019-.093.303v.43l.021.722-.021.8v.704l-.03.533c.078.461.207.776.39.946.149.025.23.233.245.625-.043.315-.084.473-.123.473l-.216.024h-1.643l-.511-.024-.022.024h-.029l-.144-.024h-.05l-.26.042c-.149 0-.4-.184-.756-.551-.15-.296-.262-.443-.339-.443-.067 0-.221.109-.461.327l-.656.473c-.255.065-.384.116-.39.152 0 .056-.047.1-.143.133l-.433-.34c-.48-.476-.754-.737-.821-.782-.245-.157-.716-.6-1.412-1.328-.39-.323-.622-.555-.7-.697-.485-.351-.727-.606-.727-.764l-.05-.17v-.903l-.022-.576.021-.055-.021-.588v-.625l.021-.873-.021-.345.021-2.517v-.46l-.021-.073c.024-.126.314-.417.872-.874l1.26-1.152.822-.764.094-.018zm2.284 1.195l-.706-.019-.072.019v.018c0 .02.058.046.173.079l.36-.037.245.018.115-.018.13.037.62-.061h.1v-.018c0-.024-.047-.037-.143-.037v-.024l-.173.024-.404-.024-.245.043zm-1.506.32h.072c.034.001.06-.035.08-.108h-.051c-.067.024-.1.06-.1.109zm-.194.134v.019h.028l.05-.037v-.036l-.078.054zm.994.176l.022.073h.13c.023 0 .062-.044.115-.133l-.03-.019h-.165l-.072.08zm2.81.03l-.021.098.021.133-.072.133a.272.272 0 0 0 .144.128l.072-.03h.08l.065.054c0 .065-.022.103-.065.115l-.152-.036-.021.109.144.079.094-.018c.177.048.266.141.266.278 0 .073.034.12.101.14h.022v-.036c-.144-.384-.274-.64-.39-.764-.086-.219-.165-.346-.237-.382h-.05zm-3.459.322v.06c.02.053.092.08.217.08a.981.981 0 0 1 .317-.08c-.058-.153-.156-.23-.296-.23h-.05v-.012c-.125.044-.188.105-.188.182zm-.778-.091c0 .024-.146.125-.44.303l-.093.17.194-.055.166.019v-.019l.022-.018-.022-.018v-.133c.068-.045.101-.101.101-.17.063 0 .094-.02.094-.06v-.02h-.022zm.022.212v.018l.173.055c.125-.012.187-.063.187-.152a.196.196 0 0 0-.115-.115h-.022c-.149 0-.223.065-.223.194zm3.906-.151l-.03.109h.073l.021-.018h.03c-.035-.057-.066-.087-.094-.091zm-2.573.151v.018l.094.091h.05c0-.04-.048-.076-.144-.109zm-1.405.51c0 .06.072.09.216.09h.05a.413.413 0 0 1 .217-.048v-.024c-.096-.166-.202-.249-.318-.249-.11.085-.165.162-.165.23zm-.728-.037h.029c.024 0 .072-.044.144-.133h-.029c-.096.032-.144.077-.144.133zm-.288.267c.091 0 .146-.053.166-.158h-.022c-.096.029-.144.081-.144.158zm-.267 1.383v.533l-.022.376.044.649.029.018h.043c.033-.056.067-.303.1-.74l-.028-.23v-.134c.053-.12.086-.355.1-.703l-.05-.17h.03l-.03-.018v-.018l.05-.23c-.066-.203-.124-.304-.172-.304-.063 0-.094.324-.094.97zm.022 1.758v.31h.029c.028 0 .043-.04.043-.116h.021l-.043-.194h-.05zm2.788 2.359l.411.4.094.17c-.091.15-.137.25-.137.303 0 .045.038.107.115.188v.042h-.05c-.087 0-.19-.21-.31-.63-.063 0-.103-.158-.123-.473zm1.19.91h.021c.087 0 .144-.027.173-.08v-.018l-.05-.036h-.08c-.038 0-.06.044-.065.133zM9.327 18.884l.029.018-.03.097v.036c.212.21.633.566 1.262 1.067 0 .04.267.271.8.692.533.444.83.713.893.806.077 0 .279.172.606.515.038 0 .377.257 1.016.77.168.162.252.273.252.334v.018l-.05.037c-.049-.029-.397-.067-1.046-.116 0-.024-.057-.038-.172-.042h-.282c-.413.356-.78.647-1.102.873l-.822.691c-.21.227-.316.356-.316.389v.018c.052 0 .079.014.079.042l-.05.14.071.097c.125-.037.188-.095.188-.176h.079l.39.194c.066.02.1.067.1.14-.02.048-.053.072-.1.072 0 .069.071.103.215.103h.05l.267-.042c.082.15.188.224.317.224.26.202.5.32.721.352.01.036.123.097.339.182l.093.097v.036l-.065.06c.034.061.065.096.094.104h.072a.257.257 0 0 0 .18-.085h.022c.087 0 .214.073.382.218h.029v.037l-.433.145-.201-.121-.094.018-.151-.042h-.044v.024l.065.133c-.029 0-.05.067-.065.2l-.389.116-.021.018v.024c.067.105.146.158.237.158.116-.017.337-.101.663-.255a2.23 2.23 0 0 0 .62-.297l.295-.037c.097 0 .145.13.145.389l-.072 3.632c0 .17.064.418.194.746 0 .089.13.242.39.46l.41.407v.06a.406.406 0 0 1-.194.061c-.13 0-.445-.125-.944-.376l-.073-.018h-.05l-.122.018c0-.077-.169-.188-.505-.333-.375-.21-.634-.33-.778-.358-.058-.105-.137-.158-.238-.158h-.252l-.505-.018-.648.018h-.922l-.75-.018-.08.018-.266-.018-1.607.018-.021.018h-.03l-.093-.018h-.094c-.144 0-.285.027-.425.079l-.201-.018-1.089.83c-.413.393-.689.589-.828.589-.096-.029-.144-.075-.144-.14l.05-.097-.029-.157c.212-.178.317-.389.317-.631.034 0 .05-.067.05-.2h.015l-.014-.928v-5.36l.014-2.147c.02-.048.21-.162.57-.34.667-.456 1.061-.685 1.181-.685h.03l.078.061-.028.14v.472l-.022.152.022.158v.078l.043.831-.015.316.015.139-.015.315.015.316-.015.097.044.594h.05v-.043l.065-.236v-.194l.194-1.419c.145-.044.217-.158.217-.34v-.06c0-.049-.039-.107-.116-.176v-.06c.096-.187.144-.356.144-.51v-.06c-.086 0-.13-.047-.13-.14v-.055c.054-.04.111-.145.174-.315.048-.04.34-.06.879-.06.178 0 .266.072.266.218v.097l-.072.49.022.492-.022.382c.02.105.05.158.094.158.072 0 .404-.205.994-.613l.332-.224v-.018a.715.715 0 0 1-.166-.237c-.072-.004-.223-.127-.454-.37-.029 0-.11-.058-.245-.176-.067-.016-.211-.095-.432-.236v-.018c.077-.263.156-.639.238-1.128l.165-.649-.072-.024c-2.176 1.002-3.502 1.588-3.977 1.758l-1.838.061c-.096-.012-.144-.032-.144-.06.135-.114.757-.443 1.866-.99.644-.363 2.001-1.078 4.072-2.146.13-.117.26-.175.389-.175zm1.556-.11h.03v.049l-.03.024h-.028l-.03-.024.058-.049zm1.442 2.93v.048l.05.048.094-.073v-.024l-.065-.048h-.03l-.05.048zm-1.305 1.121c-.206 0-.31.024-.31.073.01.032.058.062.144.09.24-.007.36-.03.36-.066v-.024l-.086-.073h-.108zm.526.26v.098l.116.163-.03.025v.17l.138.018h.029l.028-.091c-.081-.303-.137-.455-.165-.455h-.03l-.086.073zm-.807.546v.073c.043.065.091.097.144.097.15-.012.224-.036.224-.072v-.025c0-.097-.048-.145-.144-.145l-.224.072zm-.41 0v.049h.021l.058-.049h-.08zm-2.17.552h-.634a1.31 1.31 0 0 0-.446.073c0 .089.158.287.475.594 0 .105.101.176.303.212h.021c.221-.064.332-.135.332-.212a2.11 2.11 0 0 1 .584-.14c.067.126.132.189.194.189l.173-.024.137.048.166-.145H9.6l.562.145h.05v-.048a9.12 9.12 0 0 0-1.117-.668c-.005-.032-.05-.062-.137-.09l-.324.024-.166-.024-.31.066zm-1.888.503v.14l.05.049.03-.122-.03-.115-.05.048zm1.607.067l.03.024h.028l.029-.024h.029l.137.024v.049H8.1l-.078-.024-.166.097-.115-.073c0-.036.045-.06.136-.073zm-1.578.218l-.029.116.05.048v-.164h-.02zm4.245.067c.096.012.19.069.28.17-.143 0-.237-.04-.28-.121v-.049zm-2.638.122l-.029.024v.072l.087.067h.137l.057-.042v-.049c0-.04-.084-.064-.252-.072zm3.358.285v.024h-.021l-.087-.073v-.024l.108.073zm2.227-.073h.029l.057.048v.049h-.144v-.049l.058-.048zm-5.224.097l-.058.072.086.261c-.052 0-.098.461-.137 1.383l.05.212-.05 1.007.022.473-.05.83c.033.097.108.146.223.146h.973l.166.024.028-.024.476.024h.548c.187 0 .28-.064.28-.194v-.88l-.021-.26.022-.31v-.927c0-.182-.13-.317-.39-.406l-1.31-.716a2.116 2.116 0 0 0-.52-.358c0-.068-.113-.187-.338-.357zm6.002 5.27h.195l.028.066c0 .048-.019.073-.057.073h-.137l-.086-.073v-.018l.057-.049zm-1.283.375l-.028.024v.025l.028.024h.03l.028-.024v-.025l-.029-.024h-.029zm1.254.049l.058.048h.029l-.058-.048h-.029zm-.944.17l.058.048h.058l.05-.049-.05-.048h-.058l-.058.049zm-5.166.187h.028l.05.049v.024l-.05.049h-.057l-.058-.049.087-.073zm6.362.698v.024l.08.067.086-.067v-.024l-.057-.049h-.058l-.05.049zm1.132.188h.202c.096 0 .197.062.302.188v.072c-.447-.064-.67-.119-.67-.163v-.025c.02-.048.075-.072.166-.072zM22.52 19.15c.087 0 .356.156.808.467.413.287.747.463 1.002.528.403.267.754.454 1.052.564l1.217.715c.303.255.553.404.75.449.14.174.343.305.612.394.063.085.118.229.166.43-.038.102-.067.296-.086.583l.029.394-.05.267.02.018v.018l-.02.055.02.564v.752l-.02.34.02.314v.437l-.079.788.03.522v.812l.028.073-.029.073v.248l.03.334c0 .141-.114.305-.34.491-.22.158-.422.271-.605.34-.005.024-.173.123-.504.297-.245.206-.632.457-1.16.752 0 .028-.205.165-.613.412l-.44.285c0 .04-.25.196-.749.467-.264.19-.497.321-.699.394 0 .06-.055.117-.166.17-.091 0-.247-.087-.468-.26a2.928 2.928 0 0 1-.584-.456c-.73-.464-1.57-1.09-2.522-1.873l-.389-.322-.944-.679c-.13-.02-.195-.056-.195-.109l.058-.321-.029-.091c.015-.178.034-.267.058-.267l-.058-.449.03-1.54.078-.673-.028-1.164.115-.267v-1.668l-.029-.17c0-.088.574-.527 1.722-1.315 0-.029.332-.28.995-.752 1.23-.914 1.868-1.37 1.917-1.37h.05zm-.273 2.238v.018h.058l.05-.042v-.055l-.108.079zm.497.503v.037l.087.018v-.055h-.087zm-1.218.206v.06l.44.146h.058l.086.019v-.018l.08-.146c-.198-.142-.344-.212-.44-.212a.335.335 0 0 0-.224.151zm-.583.243h.029l.137-.018.194.018.029-.018-.029-.128v-.036c0-.028.029-.043.087-.043l.021-.054-.021-.018h-.03c-.278.121-.417.22-.417.297zm1.859-.073l.029.018h.029l.194-.018v-.036l-.029-.097h-.086c-.043.008-.089.052-.137.133zm-.418-.073a.303.303 0 0 0-.108.17l.029.073.389-.097v-.055a.887.887 0 0 1-.31-.09zm-.915.43v.019c.02.036.074.055.166.055h.115l.194-.055c.039 0 .176.075.411.224h.087l.108-.17a.8.8 0 0 1-.274-.224l-.137.018c-.038 0-.058-.018-.058-.054l-.086.018-.303-.054h-.029c-.13.048-.194.123-.194.224zm1.607.207a1.945 1.945 0 0 1-.411-.09c0 .21-.055.314-.166.314h-.028c-.039 0-.058-.018-.058-.054l-.029.018h-.029l-.303-.073c-.168.069-.252.138-.252.206.039.057.077.087.116.091h.136l.282-.054.165.09a.282.282 0 0 1-.252.134h-.086c0 .045-.082.125-.245.243v.224l-.03.079.03.073v.115l.028.242-.028.073.136 3.026-.057.243.057.582-.057.206c.014.113.44.47 1.275 1.073h.087a4.24 4.24 0 0 0 1.023-.679l.144-.188-.029-2.983v-2.274c0-.06-.11-.16-.331-.297 0-.025-.13-.107-.39-.249-.067-.085-.206-.166-.417-.243-.106 0-.2.051-.281.152zm-2.796-.036v.018h.05a.254.254 0 0 0 .144-.115h-.057c-.048.008-.094.04-.137.097zm-.31.958l.029.054-.029.207v.285l.029.412-.029.17.058.69.029.019h.028l.08-.17-.03-.018.058-.297-.028-.06.028-.092-.028-.34.115-.448-.029-.527.029-.17c-.082-.174-.137-.261-.166-.261h-.029c-.062 0-.1.182-.115.546zm.058 2.007v.242l.057.043.03-.097v-.091l-.03-.134-.057.037zM33.935 19.15c.087 0 .356.156.807.467.413.287.747.463 1.002.528.403.267.754.454 1.052.564l1.218.715c.302.255.552.404.75.449.138.174.343.305.612.394.062.085.117.229.165.43-.038.102-.067.296-.086.583l.029.394-.05.267.02.018v.018l-.02.055.02.564v.752l-.02.34.02.314v.437l-.078.788.029.522v.812l.028.073-.029.073v.248l.03.334c0 .141-.114.305-.34.491-.22.158-.422.271-.605.34-.005.024-.173.123-.504.297-.245.206-.632.457-1.16.752 0 .028-.204.165-.613.412l-.44.285c0 .04-.25.196-.749.467-.264.19-.497.321-.699.394 0 .06-.055.117-.166.17-.09 0-.247-.087-.468-.26a2.928 2.928 0 0 1-.584-.456c-.73-.464-1.57-1.09-2.522-1.873l-.389-.322-.944-.679c-.13-.02-.194-.056-.194-.109l.057-.321-.029-.091c.015-.178.034-.267.058-.267l-.058-.449.03-1.54.079-.673-.03-1.164.116-.267v-1.668l-.029-.17c0-.088.574-.527 1.723-1.315 0-.029.331-.28.994-.752 1.23-.914 1.869-1.37 1.917-1.37h.05zm-.274 2.238v.018h.058l.05-.042v-.055l-.108.079zm.497.503v.037l.087.018v-.055h-.087zm-1.217.206v.06l.44.146h.057l.086.019v-.018l.08-.146c-.197-.142-.344-.212-.44-.212a.335.335 0 0 0-.223.151zm-.584.243h.029l.137-.018.194.018.03-.018-.03-.128v-.036c0-.028.03-.043.087-.043l.021-.054-.021-.018h-.029c-.279.121-.418.22-.418.297zm1.86-.073l.028.018h.029l.194-.018v-.036l-.028-.097h-.087c-.043.008-.089.052-.137.133zm-.419-.073a.304.304 0 0 0-.108.17l.029.073.39-.097v-.055a.887.887 0 0 1-.31-.09zm-.915.43v.019c.02.036.075.055.166.055h.115l.195-.055c.038 0 .175.075.41.224h.087l.108-.17a.8.8 0 0 1-.274-.224l-.137.018c-.038 0-.057-.018-.057-.054l-.087.018-.303-.054h-.028c-.13.048-.195.123-.195.224zm1.607.207a1.943 1.943 0 0 1-.41-.09c0 .21-.056.314-.166.314h-.03c-.038 0-.057-.018-.057-.054l-.029.018h-.029l-.302-.073c-.168.069-.252.138-.252.206.038.057.076.087.115.091h.137l.28-.054.166.09a.282.282 0 0 1-.252.134h-.086c0 .045-.082.125-.245.243v.224l-.029.079.029.073v.115l.029.242-.03.073.138 3.026-.058.243.058.582-.058.206c.014.113.44.47 1.276 1.073h.086c.418-.206.76-.432 1.023-.679l.144-.188-.028-2.983v-2.274c0-.06-.11-.16-.332-.297 0-.025-.13-.107-.389-.249-.067-.085-.207-.166-.418-.243-.106 0-.2.051-.281.152zm-2.796-.036v.018h.05a.254.254 0 0 0 .145-.115h-.058c-.048.008-.094.04-.137.097zm-.31.958l.03.054-.03.207v.285l.03.412-.03.17.058.69.029.019h.029l.079-.17-.029-.018.058-.297-.03-.06.03-.092-.03-.34.116-.448-.029-.527.03-.17c-.083-.174-.138-.261-.167-.261H31.5c-.063 0-.101.182-.116.546zm.058 2.007v.242l.058.043.028-.097v-.091l-.028-.134-.058.037zM46.574 19.284c.553.32 1.048.645 1.485.976.994.671 1.564 1.067 1.708 1.188.523.283.785.476.785.576l-1.03.734c0 .024-.039.037-.116.037a.383.383 0 0 1-.36.212c-.245.335-.41.507-.497.515h-.022c-.35-.13-.768-.34-1.254-.63l-.72-.522c0 .053-.024.079-.072.079h-.022l-.151-.036v.018l-.03.073.03.078c-.005.04-.058.08-.159.116-.144-.009-.228-.035-.252-.08h-.022v-.114l.05-.037.087.037c.092-.029.137-.073.137-.134l-.115-.073h-.022l-.403.134v.133c0 .045.081.077.245.097l.021.073c-.163.036-.245.095-.245.176l.044.133-.137.097c-.072 0-.108-.014-.108-.042-.063 0-.094.052-.094.158-.12.032-.18.056-.18.072v.097c0 .142.197.295.59.461.034.057.258.16.67.31.183.113.303.214.361.303.178 0 .627.212 1.348.636.72.291 1.08.502 1.08.63v.061h.138c.13 0 .578.193 1.347.577.226.04.339.186.339.436l.36 3.166.086 1.073v.018c0 .069-.021.107-.064.115h-.072a2.555 2.555 0 0 1-.584-.188c-.101 0-.334-.083-.7-.248h-.129a2.91 2.91 0 0 0-.403.479 5.272 5.272 0 0 1-.743.418c-.067.077-.254.192-.562.346l-1.24-.037-.136.018-.288-.018-.094.018-.086-.018c-1.355.016-2.306.043-2.854.08l-.432-.043h-.108c-.068 0-.159.058-.274.175l-.288.134c-.154 0-.387.083-.7.248l-.403.134c-.192 0-.387.097-.584.291a.327.327 0 0 0-.201-.079l-.022.018h-.022c-.072-.024-.11-.05-.115-.078 0-.081.233-.31.699-.686 0-.036.18-.196.54-.479l2.94-2.589c.053-.077.12-.115.202-.115h.022l.029.71v.187l.021.291-.05.364c0 .09.158.134.475.134l.116-.019 2.111.037h.339c.072 0 .115-.027.13-.08l-.34-2.988c-.08-.114-.657-.409-1.729-.886a116.551 116.551 0 0 0-3.459-1.8 26.658 26.658 0 0 0-1.686-.862l-.021-.097c.168-.214.49-.483.965-.806.024-.049.495-.439 1.413-1.17.081-.098.996-.825 2.745-2.184.418-.36.666-.54.742-.54zm-3.459 4.123h.065c.058 0 .17-.065.34-.194l.064-.073c.158 0 .264-.076.317-.23.043 0 .214-.115.512-.346l.137-.018.043.133-.022.249h.022l.05.036.022-.018h.065c0 .033.03.053.093.06l-.021.116c0 .137.029.206.086.206.077-.02.116-.058.116-.115l-.116-.249c.063-.02.123-.097.18-.23.164 0 .245-.095.245-.285-.053-.089-.12-.133-.201-.133-.005.125-.065.188-.18.188l-.022.024v.188c-.12.1-.18.165-.18.194h-.022l-.043-.043a.247.247 0 0 0 .065-.17v-.018l-.044-.133a.458.458 0 0 0 .159-.212c.1 0 .197-.09.288-.267h.094l.245.152c.149-.053.223-.112.223-.176l-.021-.018v-.019l.072-.17-.18-.042v-.036a.6.6 0 0 1 .31-.194l.223.06a.478.478 0 0 1 .209-.078l.021.018v-.073c0-.117-.03-.176-.093-.176v-.018c0-.028.038-.047.115-.055l.022.018.065.019v.018l.072-.018v-.116l.043-.23-.022-.018h-.021l-.793.576c-.043 0-.401.255-1.074.764l-.9.612-.628.485v.055zm3.034-2.092h.065l.022.018h.021l-.043.116.022.096-.108.019v-.018l-.072.018c-.087-.012-.13-.03-.13-.055v-.036c.057-.105.132-.158.223-.158zm-.252.503c.058.037.11.055.159.055h.021l.05-.036-.093-.08h-.065l-.072.061zm.296.188c.057.142.117.213.18.213.038-.009.074-.04.108-.097-.15-.053-.224-.104-.224-.152h-.021l-.043.036zm3.192.152l.086.042c.087-.02.147-.052.18-.097v-.036l-.13-.043c-.09.02-.136.065-.136.134zm-.606-.036c.044.165.08.248.108.248l.296-.23v-.018c-.014-.04-.082-.067-.202-.08-.11 0-.178.027-.202.08zm.988-.08v.025l.064.055h.072v-.019l-.072-.06h-.064zm-4.454.674v.042h-.021l.021.018v.019l-.021.018v.018l.043.079c.091-.029.137-.055.137-.079v-.036c-.024-.053-.077-.08-.159-.08zm-1.009.176v.036l.065.018.094-.018v-.018l-.05-.043-.108.025zm.808.054v.018c0 .065.03.104.093.116l.087-.019-.022-.078.022-.055-.022-.018h-.115l-.043.036zm-.563 6.792c-.12.295-.18.487-.18.576h.022c.154-.146.23-.3.23-.461v-.115h-.072zm-.18.71l-.043.054v.176c.029 0 .082-.051.159-.152-.015-.053-.053-.079-.116-.079zM62.723 19.466l.187.018.498-.018h1.181c.255 0 .382.068.382.206l.029.072-.029.516v.242l-.029.019.03.018v1.85c0 .161-.027.242-.08.242-.144-.113-.375-.206-.692-.279-.418-.218-.728-.336-.93-.352h-.547l-1.074.018-.302-.018-.224.037c-.144-.04-.216-.083-.216-.128h-.029l-.057.037.057.054v.018l-.057.207v.109l.028.073-.028.018.028.685v.406l-.028.206.057.188-.029.255.03.794-.03.08.03.108v.146a.78.78 0 0 1-.08.315v4.312l.022.351-.022.08.022.127-.022.442v.073c0 .06.072.13.216.206 0 .065.156.218.468.46.404.397.834.793 1.29 1.19l.03.054-.08.036-.634-.036-1.045.036-.245-.018h-.029l-.195.018-.194-.018-.88.018-.186-.018-.498.018h-1.181l-.166.019-.137-.019h-.08l-.115.019-.187-.019h-.605l-.108.019-.116-.019h-.079l-.41.019-.03-.055.685-.63c.384-.453.577-.83.577-1.129v-.054l-.03-.243.03-.072-.051-.813.022-.06-.022-.498v-1.94l-.029-.376.029-.37v-1.831l.022-.352-.022-.018.022-.316v-.533l-.022-.461.022-.485v-.552l-.022-.188a.298.298 0 0 0 .166-.09v-.037l-.166-.018-.223.127c-.092 0-.137-.012-.137-.037l-.03.019h-.468l-.108-.019c-.057.02-.321.039-.792.055a1.532 1.532 0 0 0-.44-.055l-.302.019-.253-.055.03-.09v-.019l-.195.036v.019c0 .02.055.044.165.072v.037c-.312.234-.52.351-.627.351l-.273.182-.058-.036.029-.164-.029-.145.029-.025h.05l.087.043h.079c.053-.016.118-.085.194-.206.145-.04.217-.103.217-.188.057-.158.132-.237.223-.237l.029.018h.029l.382-.109h.165l.03.018h.02l.138-.096v-.037c-.106-.053-.159-.113-.159-.182L54.53 21l.086-.037h.137l-.057.134h.028c.101.016.202.07.303.163.038 0 .094-.06.166-.181h.021l.144.018.217-.188h.028c.072.02.108.056.108.109h.087l.022-.11-.022-.108h-.115l-.137.018-.08-.073v-.018c0-.028.027-.043.08-.043l.166.019.302-.037.245.037a.99.99 0 0 1 .303-.037h.389l.137-.018v-.018l-.548-.018h-.36l-.166.018-.274-.037-.245.019h-.057v-.018l-.195.018h-.382l-.302.018c-.048 0-.341-.184-.88-.552l-.194-.097h-.05c.019.113.192.281.518.503l.137.2a.728.728 0 0 0-.166.298l.274.242v.055l-.137.054c0-.113-.117-.206-.353-.279l-.223.097-.166-.018h-.022v.091c-.028.223-.074.334-.136.334h-.03v-.019l.03-.17-.03-.163.03-.127-.058-.152.029-.073-.029-.26v-.091l.029-.298a.836.836 0 0 1-.195-.388c0-.198.056-.297.166-.297 5.183-.012 8.39-.03 9.62-.054zm1.124.83v.018h.05l.087-.054v-.018h-.058l-.079.054zm-5.772.316h-.274v.018c0 .044.166.077.497.097l.109.055h.079c.134-.09.245-.134.331-.134h.058a.39.39 0 0 0 .216.079c.034 0 .063-.032.087-.097l-.087-.037-.245.019-.245-.018-.36.018-.029-.018-.137.018zm1.24.036l.136.055.743-.073v-.018h-.332l-.44-.018c-.072.02-.107.038-.107.054zm1.62-.018v.018h.051v.018c.15-.012.224-.03.224-.054h-.087l-.187.018zm-5.742.018c.091.02.137.053.137.097l-.116.146h-.05c0-.029-.055-.059-.166-.091v-.073c0-.028.065-.055.195-.079zm-.742.036h.028l.05.043v.018c-.09.065-.136.125-.136.182h-.058l-.05-.182c.019-.04.074-.06.166-.06zm.353.098c.11.008.165.026.165.054l-.029.018h-.079l-.057-.036v-.037zm3.466.297v.036l.05.036a.72.72 0 0 0 .332-.242v-.018l-.108-.073c-.058.02-.15.107-.274.26zm.41-.225v.037c.14 0 .267.11.382.333h.058c.01-.097.029-.145.058-.145-.01-.045-.12-.132-.332-.261h-.108l-.058.036zm-2.442.055l.05.036a.23.23 0 0 1-.108.134l.029.018v.018c0 .085-.11.127-.332.127v.073l.332.133.029.091h.136l.022-.072-.08-.061v-.11l.332-.127c0-.048.017-.072.05-.072h.058a.42.42 0 0 0 .195.072v-.018c.038-.064.146-.097.324-.097 0-.024-.062-.036-.187-.036L57.059 21l-.166-.073c-.149.085-.25.127-.302.127l-.245-.072v-.037h.05v-.018l-.158-.018zm3.185.145l.136.025.109-.08-.03-.017h-.02c-.102 0-.167.024-.195.072zm-4.151.28v.096l.058.037c.254-.033.382-.071.382-.115l-.217-.146h-.028l-.195.127zm3.769-.092c-.096.065-.144.12-.144.164v.297l.057.134h.058c.033 0 .089-.075.166-.225-.03-.238-.075-.362-.137-.37zm4.72.055v.188l-.05.054v.019c0 .064.045.113.136.145l.166-.036.108.018v.073l-.08.06-.223-.036v.018l-.029.055c.116.085.272.127.469.127l.137.152-.03.109a.263.263 0 0 0 .138.109h.029l.057-.036c-.216-.42-.372-.637-.468-.65 0-.112-.091-.248-.274-.405h-.029l-.057.036zm-7.142.224l.195.128c.163-.11.264-.164.303-.164l-.166-.206h-.058c-.182.024-.273.105-.273.242zm.908 0l.03.018c.215-.064.323-.109.323-.133v-.036c-.235 0-.353.05-.353.151zm2.746-.054h.029l.057-.037h-.029l-.057.037zm-.332.018v.073h.087v-.019l-.087-.054zm3.466.018l-.028.091v.018h.079l.029-.018h.029c-.034-.057-.07-.087-.108-.091zm-8.711.018v.055l.057.036h.108l-.086-.09h-.08zm.497.018c0 .025-.03.037-.087.037v.036l.058.037h.137l.029-.073-.137-.037zm.41.073l.08.091.137-.018v-.055l-.108-.036h-.05l-.03.018h-.029zm4.915.11l-.022.017v.043c.015.036.07.055.166.055h.022v-.019a.293.293 0 0 0-.166-.097zm-1.535.26c0 .049-.02.073-.058.073l-.028.63.057 1.577c.063 0 .099-.099.108-.297l-.021-.115c.048-.093.1-.494.158-1.2l.058-.17c0-.203-.091-.369-.274-.498zm-.029 2.426v.018l.029.09h.029v-.145l-.058.037z" mask="url(#a)"/><defs><linearGradient id="paint0_linear" x1="35.081" x2="35.081" y1="4.912" y2="44.652" gradientUnits="userSpaceOnUse"><stop offset=".349" stop-color="#284161"/><stop offset=".625" stop-color="#955848"/><stop offset=".964" stop-color="#FC9060"/></linearGradient><linearGradient id="paint1_linear" x1="35.081" x2="35.081" y1="4.912" y2="44.652" gradientUnits="userSpaceOnUse"><stop offset=".349" stop-color="#284161"/><stop offset=".625" stop-color="#955848"/><stop offset=".964" stop-color="#FC9060"/></linearGradient><linearGradient id="paint2_linear" x1="35.081" x2="35.081" y1="4.912" y2="44.652" gradientUnits="userSpaceOnUse"><stop offset=".349" stop-color="#284161"/><stop offset=".625" stop-color="#955848"/><stop offset=".964" stop-color="#FC9060"/></linearGradient><linearGradient id="paint3_linear" x1="35.081" x2="35.081" y1="4.912" y2="44.652" gradientUnits="userSpaceOnUse"><stop offset=".349" stop-color="#284161"/><stop offset=".625" stop-color="#955848"/><stop offset=".964" stop-color="#FC9060"/></linearGradient><linearGradient id="paint4_linear" x1="35.081" x2="35.081" y1="4.912" y2="44.652" gradientUnits="userSpaceOnUse"><stop offset=".349" stop-color="#284161"/><stop offset=".625" stop-color="#955848"/><stop offset=".964" stop-color="#FC9060"/></linearGradient><linearGradient id="paint5_linear" x1="35.081" x2="35.081" y1="4.912" y2="44.652" gradientUnits="userSpaceOnUse"><stop offset=".349" stop-color="#284161"/><stop offset=".625" stop-color="#955848"/><stop offset=".964" stop-color="#FC9060"/></linearGradient><linearGradient id="paint6_linear" x1="35.081" x2="35.081" y1="4.912" y2="44.652" gradientUnits="userSpaceOnUse"><stop offset=".349" stop-color="#284161"/><stop offset=".625" stop-color="#955848"/><stop offset=".964" stop-color="#FC9060"/></linearGradient><linearGradient id="paint7_linear" x1="35.081" x2="35.081" y1="4.912" y2="44.652" gradientUnits="userSpaceOnUse"><stop offset=".349" stop-color="#284161"/><stop offset=".625" stop-color="#955848"/><stop offset=".964" stop-color="#FC9060"/></linearGradient></defs></svg>